<?xml version="1.0" encoding="utf-8"?>
<!DOCTYPE svg PUBLIC "-//W3C//DTD SVG 1.0//EN" "http://www.w3.org/TR/2001/REC-SVG-20010904/DTD/svg10.dtd">
<svg version="1.0" xmlns="http://www.w3.org/2000/svg" width="506px" height="407px" viewBox="0 0 506 407" preserveAspectRatio="xMidYMid meet">
 <g fill="#ffffff">
  <path d="M262.90 364.85 c-3.25 -1.30 -1.55 -1.70 8.50 -2 5.40 -0.20 11.90 -0.65 14.35 -1.10 5.45 -0.95 12.75 -1.50 12.75 -1.05 0 0.95 -1.65 1.80 -3.45 1.80 -1.10 0 -2.15 0.25 -2.30 0.50 -0.15 0.30 -1.65 0.50 -3.30 0.50 -1.60 0 -2.95 0.20 -2.95 0.45 0 0.45 -5.45 0.85 -17 1.30 -3.20 0.10 -5.80 -0.05 -6.60 -0.40z"/>
  <path d="M252.25 364 c-0.15 -0.25 -1.55 -0.50 -3.05 -0.50 -1.50 0 -2.70 -0.20 -2.70 -0.50 0 -0.25 -0.90 -0.50 -1.95 -0.50 -1.10 0 -2.15 -0.20 -2.30 -0.50 -0.15 -0.25 -1.20 -0.50 -2.30 -0.50 -1.05 0 -1.95 -0.20 -1.95 -0.50 0 -0.25 -0.90 -0.50 -1.95 -0.50 -1.10 0 -2.15 -0.20 -2.30 -0.50 -0.15 -0.25 -0.85 -0.50 -1.50 -0.50 -0.65 0 -1.35 -0.20 -1.50 -0.50 -0.15 -0.25 -0.85 -0.50 -1.50 -0.50 -0.65 0 -1.35 -0.20 -1.50 -0.50 -0.15 -0.25 -0.70 -0.50 -1.20 -0.50 -2 0 -16.70 -6.90 -23.75 -11.20 -10.85 -6.55 -24.40 -18.05 -32.70 -27.85 -8.40 -9.90 -17.95 -25.20 -21.50 -34.45 -4.25 -11.20 -5.35 -14.65 -5.95 -19.15 -0.15 -1 -0.45 -2 -0.70 -2.15 -0.25 -0.15 -0.45 -1 -0.45 -1.95 0 -0.95 -0.20 -1.85 -0.50 -2 -0.25 -0.15 -0.50 -0.95 -0.50 -1.80 0 -2 1.85 -2.05 2.30 -0.05 3.85 16.50 7.75 26.75 15.10 40.10 2.45 4.50 10.30 15.40 14.75 20.55 8.55 9.85 17.90 17.85 29.95 25.60 4.75 3.10 18.65 10.15 22.80 11.60 1.40 0.55 2.60 1.15 2.60 1.35 0 0.20 0.70 0.40 1.50 0.40 0.85 0 1.50 0.25 1.50 0.50 0 0.30 0.70 0.50 1.50 0.50 0.85 0 1.50 0.25 1.50 0.50 0 0.30 0.90 0.50 2 0.50 1.10 0 2 0.25 2 0.50 0 0.30 0.75 0.50 1.70 0.50 2.25 0 6.80 1.05 6.80 1.60 0 0.20 0.50 0.40 1.10 0.40 0.60 0 3.05 0.25 5.50 0.55 3.75 0.50 4.40 0.70 4.40 1.50 0 0.80 -0.40 0.95 -2.45 0.95 -1.40 0 -2.65 -0.20 -2.80 -0.50z"/>
  <path d="M306.50 358.50 c0 -0.80 0.35 -1 1.50 -1 0.85 0 1.50 -0.20 1.50 -0.50 0 -0.25 0.70 -0.50 1.50 -0.50 0.85 0 1.50 0.15 1.50 0.30 0 0.70 -1.55 1.70 -2.70 1.70 -0.70 0 -1.30 0.25 -1.30 0.50 0 0.30 -0.45 0.50 -1 0.50 -0.65 0 -1 -0.35 -1 -1z"/>
  <path d="M316.10 354.60 c0.15 -1.20 0.35 -1.35 2.30 -1.50 1.45 -0.10 2.10 -0.40 2.10 -0.90 0 -0.60 1.10 -1.30 4 -2.40 0.40 -0.20 1.90 -1 3.25 -1.80 1.40 -0.85 2.95 -1.75 3.50 -2 0.55 -0.30 1.60 -0.90 2.35 -1.40 0.70 -0.45 2.40 -1.50 3.70 -2.30 1.30 -0.80 3.70 -2.45 5.25 -3.65 1.55 -1.15 3.20 -2.15 3.60 -2.15 0.45 0 0.85 -0.20 0.95 -0.45 0.10 -0.25 3.20 -3.25 6.95 -6.65 13.95 -12.65 22 -23.30 29.60 -38.95 4.35 -8.95 5.05 -10.60 6.25 -14.70 0.55 -1.90 1.50 -5.05 2.10 -7 0.95 -3.25 4.30 -18.10 4.85 -21.50 0.50 -3.30 0.65 -3.75 1.65 -3.75 0.80 0 1 0.35 1 1.65 0 0.90 -0.20 1.85 -0.45 2.15 -0.25 0.25 -0.60 1.60 -0.75 2.95 -0.70 6.10 -0.90 7.55 -1.35 8 -0.25 0.25 -0.45 1.10 -0.45 1.85 0 2.35 -2.80 12.60 -5.85 21.40 -2.80 7.95 -11.55 23.75 -17.35 31.25 -2.50 3.25 -11.10 12.90 -12.60 14.20 -0.80 0.70 -3 2.70 -4.95 4.45 -3.10 2.90 -10.20 8.45 -14.50 11.35 -3.85 2.65 -13.10 7.95 -16.10 9.30 -1.90 0.85 -4.30 1.90 -5.40 2.45 -3.60 1.65 -3.85 1.65 -3.65 0.10z"/>
  <path d="M264.50 351.70 c-14.05 -0.90 -29.90 -4.30 -38.50 -8.30 -1.25 -0.55 -3.45 -1.55 -4.85 -2.20 -2.60 -1.15 -2.65 -1.25 -2.65 -3.30 0 -2.10 0.15 -2.30 7.90 -10.05 l7.85 -7.85 31.25 0 31.25 0.05 9.50 9.20 c5.20 5.10 9.75 9.35 10.10 9.50 0.35 0.10 0.65 0.95 0.65 1.85 0 1.60 -0.10 1.70 -4.40 3.30 -5.70 2.20 -15.15 5.05 -18.60 5.65 -10.70 1.80 -21.85 2.65 -29.50 2.15z"/>
  <path d="M317.40 325.70 c-12.10 -12 -11.90 -10.95 -3.10 -17.95 3.45 -2.75 6.60 -5.30 7 -5.65 1.95 -1.85 7.40 -6.10 7.75 -6.10 0.55 0 2.10 -1.25 4.25 -3.35 1 -1 2.10 -1.65 2.90 -1.65 0.70 0 1.30 -0.20 1.30 -0.50 0 -0.30 1.60 -0.50 3.75 -0.50 2.15 0 3.75 -0.20 3.75 -0.50 0 -0.30 1.65 -0.50 4 -0.50 2.35 0 4 -0.20 4 -0.50 0 -0.30 1.75 -0.50 4.25 -0.50 2.50 0 4.25 -0.20 4.25 -0.50 0 -0.30 2.15 -0.50 5.50 -0.50 l5.50 0 -0.05 1.90 c0 1 -0.40 2.45 -0.85 3.20 -0.45 0.70 -1.50 2.40 -2.30 3.75 -4.95 8.15 -12.95 18.10 -18.45 22.90 -1.90 1.65 -4.55 4 -5.85 5.20 -4 3.55 -15.50 11.05 -16.95 11.05 -1 0 -3.35 -2.05 -10.65 -9.30z"/>
  <path d="M202.10 330.40 c-1.10 -0.90 -3.20 -2.55 -4.65 -3.65 -7.95 -5.95 -20.70 -20.15 -26.95 -30.05 -3.05 -4.90 -3.50 -5.90 -3.50 -7.95 l0 -2.40 3.90 0.35 c2.10 0.20 4.85 0.55 6.10 0.80 2.10 0.40 4 0.70 13.25 2.05 1.95 0.30 4.40 1 5.50 1.60 2.35 1.25 8.75 6.30 8.75 6.90 0 0.25 0.30 0.45 0.65 0.45 0.35 0 1.35 0.70 2.25 1.50 0.90 0.85 1.85 1.50 2.05 1.50 0.25 0 1.40 0.85 2.60 1.90 1.20 1 3.25 2.70 4.55 3.75 1.30 1.05 2.65 2.20 3 2.50 0.35 0.35 1.50 1.25 2.55 2.05 1.45 1.10 1.85 1.75 1.85 3 0 1.35 -1.05 2.60 -7.90 9.45 -7.60 7.60 -7.95 7.85 -9.95 7.85 -1.60 0 -2.50 -0.35 -4.05 -1.60z"/>
  <path d="M244.25 308.05 l-10.50 -0.30 -2 -1.60 c-2.20 -1.80 -5.25 -4.20 -8.90 -7.05 -1.30 -1 -3.50 -2.75 -4.80 -3.85 -1.30 -1.10 -4.25 -3.45 -6.45 -5.15 l-4.10 -3.20 0 -2.35 0 -2.40 13.90 -14.05 13.85 -14.10 33.45 0 33.45 0 1.45 1.50 c0.75 0.85 1.60 1.50 1.80 1.50 0.20 0.05 1.25 1.20 2.35 2.60 1.10 1.40 2.55 3.10 3.15 3.85 2.20 2.40 11.35 14.75 12.75 17.15 0.75 1.30 1.35 3.10 1.35 4 0 1.40 -0.40 1.95 -2.55 3.55 -1.35 1 -2.65 1.85 -2.85 1.85 -0.20 0 -0.90 0.50 -1.60 1.15 -0.70 0.65 -3.10 2.55 -5.35 4.30 -2.30 1.70 -4.25 3.35 -4.45 3.60 -0.15 0.25 -1.55 1.40 -3.10 2.55 -1.55 1.15 -3.05 2.30 -3.35 2.50 -0.25 0.25 -1.55 1.20 -2.80 2.20 l-2.35 1.75 -20.90 0.15 c-11.55 0.10 -25.70 0.05 -31.45 -0.15z"/>
  <path d="M190.50 278.50 c0 -0.30 -1.65 -0.50 -3.95 -0.50 -2.20 0 -4.15 -0.20 -4.30 -0.50 -0.15 -0.25 -2 -0.50 -4.05 -0.50 -2.15 0 -3.70 -0.20 -3.70 -0.50 0 -0.30 -1.30 -0.50 -2.95 -0.50 -1.65 0 -3.15 -0.20 -3.30 -0.50 -0.15 -0.25 -1.75 -0.50 -3.55 -0.50 -1.80 0 -3.20 -0.20 -3.20 -0.50 0 -0.25 -0.40 -0.50 -0.95 -0.50 -1.35 0 -1.75 -0.75 -3.05 -5.50 -0.60 -2.35 -1.40 -5.15 -1.75 -6.25 -1.20 -3.70 -3.25 -16.65 -3.25 -20.35 l0 -1.90 14.25 0 14.25 0 0 -5.50 0 -5.50 -23 0 c-12.65 0 -23 -0.20 -23 -0.40 0 -0.20 -0.65 -0.75 -1.45 -1.25 -2.45 -1.45 -3.05 -3.50 -3.05 -10.30 l0 -6.05 37.75 0 37.75 0 0 7.90 c0 6.40 0.15 8.30 0.85 9.65 0.70 1.45 15.65 17.35 16.80 17.85 0.20 0.10 0.35 1.05 0.35 2.05 0 1.80 -0.65 2.55 -14.35 16.20 l-14.35 14.35 -2.40 0 c-1.30 0 -2.40 -0.20 -2.40 -0.50z"/>
  <path d="M334 276.50 c-1.20 -1.40 -2.70 -3.30 -3.35 -4.25 -0.65 -0.95 -1.35 -1.75 -1.55 -1.75 -0.20 0 -0.75 -0.60 -1.20 -1.35 -0.45 -0.80 -2.20 -3.10 -3.90 -5.15 -1.65 -2.05 -4.25 -5.35 -5.75 -7.30 -1.50 -1.95 -3.10 -3.85 -3.50 -4.20 -0.45 -0.40 -0.75 -1.50 -0.75 -2.95 l0 -2.30 8.30 -8.25 c10.60 -10.55 10.70 -10.70 10.70 -20.75 l0 -7.25 35 0 c36.25 0 35.80 -0.05 38.05 2 2.60 2.35 3.35 8.55 1.40 12 -1.80 3.20 -3 3.50 -17.45 3.95 l-10.25 0.30 -0.15 5.10 c-0.15 5.10 -0.15 5.10 1.15 5.45 0.70 0.15 1.25 0.50 1.25 0.75 0 0.25 0.95 0.45 2.05 0.45 l2.10 0 -0.35 5.15 c-0.20 2.80 -0.55 5.90 -0.80 6.85 -0.25 0.95 -1.15 4.90 -2 8.75 -0.85 3.85 -1.80 7.50 -2.05 8.15 -0.25 0.65 -0.45 1.65 -0.45 2.30 0 1.90 -1.25 2.45 -6.65 2.90 -2.80 0.25 -7 0.65 -9.35 0.90 -2.35 0.30 -6.15 0.75 -8.50 1 -2.35 0.25 -6.25 0.70 -8.75 1 -2.45 0.30 -5.95 0.65 -7.75 0.80 l-3.30 0.25 -2.20 -2.55z m27.90 -41.45 c0.10 -3.75 -0.05 -5.90 -0.45 -6.35 -0.40 -0.50 -1.95 -0.70 -6 -0.70 l-5.45 0 0 6.50 0 6.55 5.90 -0.15 5.85 -0.15 0.15 -5.70z"/>
  <path d="M26.65 255.50 c-0.90 -0.50 -1.95 -1.65 -2.40 -2.45 -0.95 -1.90 -0.95 -2.05 0.20 -2.05 1.25 0 4.55 3.20 4.55 4.45 0 1.30 -0.35 1.30 -2.35 0.05z"/>
  <path d="M140.10 252.85 c-0.95 -2.60 -0.80 -4.85 0.35 -4.85 1 0 1.55 1.70 1.55 4.80 0 2.20 -1.10 2.25 -1.90 0.05z"/>
  <path d="M23 249.40 c0 -1.50 0.65 -2.90 1.30 -2.90 0.45 0 0.70 0.60 0.70 1.75 0 1.40 -0.20 1.75 -1 1.75 -0.55 0 -1 -0.30 -1 -0.60z"/>
  <path d="M138.95 245.20 c-0.40 -1.30 -0.90 -2.40 -1.20 -2.45 -3.10 -0.85 -7.65 -2.55 -9.40 -3.55 -3.10 -1.70 -6.90 -5.95 -8.55 -9.45 -0.75 -1.65 -1.60 -3.40 -1.85 -3.85 -0.80 -1.60 -0.55 -3.40 0.50 -3.40 0.70 0 1.15 0.55 1.55 1.90 1.25 3.75 3.65 7.60 6.45 10.10 4.10 3.70 4.05 3.65 7.30 4.70 7.05 2.20 7.25 2.35 7.25 5.90 0 3.20 -1.15 3.25 -2.05 0.10z"/>
  <path d="M261.75 243.40 l-27 -0.45 -8.85 -8.90 -8.90 -8.95 0 -7.05 0 -7.05 52.40 0.10 52.35 0.15 -0.20 7.25 -0.15 7.25 -8.35 8.45 c-4.55 4.60 -8.60 8.70 -8.95 9.10 -0.75 0.80 0.50 0.80 -42.35 0.10z"/>
  <path d="M401 241.25 c0 -1 0.25 -1.25 1.25 -1.25 0.70 0 2.95 -0.80 5 -1.75 2.80 -1.35 4.35 -2.50 6.45 -4.90 2.50 -2.80 3.25 -4.15 5.40 -9.95 0.75 -1.95 2.40 -1.90 2.40 0.05 0 0.85 -0.20 1.65 -0.50 1.80 -0.25 0.15 -0.50 0.80 -0.50 1.40 0 1.80 -2.60 6.30 -5.25 9.05 -2.75 2.85 -8.60 6 -12.10 6.50 -2.05 0.30 -2.15 0.25 -2.15 -0.95z"/>
  <path d="M40.50 236.95 c0 -3.45 5.55 -17.20 10.35 -25.70 2.45 -4.30 4.10 -6.85 8.65 -13.40 0.40 -0.60 1.95 -2.55 3.40 -4.35 1.45 -1.80 3.90 -4.75 5.35 -6.60 1.50 -1.85 3.25 -3.70 3.85 -4.10 0.60 -0.45 2.70 -2.30 4.65 -4.15 2 -1.85 4.45 -3.95 5.50 -4.65 1 -0.70 2.25 -1.65 2.75 -2.10 0.55 -0.45 1.65 -1.20 2.50 -1.65 0.85 -0.45 1.65 -1.10 1.80 -1.45 0.15 -0.40 0.90 -0.80 1.65 -0.95 0.80 -0.15 1.80 -0.65 2.20 -1.10 0.45 -0.40 1.05 -0.75 1.35 -0.75 0.30 0 1 -0.45 1.60 -1 0.60 -0.55 1.50 -1 2 -1 0.50 0 0.90 -0.20 0.90 -0.50 0 -0.25 0.45 -0.50 1 -0.50 0.55 0 1 -0.20 1 -0.50 0 -0.25 0.40 -0.50 0.90 -0.50 0.50 0 1.75 -0.45 2.85 -1 1.10 -0.55 2.20 -1 2.45 -1 0.45 0 4.05 -1.55 5.90 -2.55 0.50 -0.25 1.55 -0.45 2.40 -0.45 0.80 0 1.50 -0.20 1.50 -0.50 0 -0.25 1 -0.50 2.25 -0.50 1.25 0 2.25 -0.20 2.25 -0.50 0 -0.25 0.90 -0.50 2 -0.50 1.10 0 2 -0.20 2 -0.50 0 -0.75 4.85 -0.60 6.40 0.20 0.75 0.40 2.15 1.55 3.10 2.55 0.95 1 3.80 3.55 6.25 5.65 2.50 2.10 4.60 3.90 4.75 4.05 0.15 0.20 2.15 2 4.50 4.10 6.25 5.55 20.10 18 21.25 19.10 0.55 0.55 2.20 1.85 3.65 2.95 2.35 1.85 2.60 2.20 2.60 3.95 l0 1.95 -3.50 0 c-2 0 -3.50 0.20 -3.50 0.50 0 0.30 -5.90 0.50 -16.75 0.50 l-16.75 0 0 -1.60 c0 -1.15 0.80 -2.90 2.55 -5.55 2.55 -4 2.80 -5.40 1.05 -6.05 -1.10 -0.40 -2.85 -1.45 -3.95 -2.35 -1.65 -1.30 -3.25 -2.05 -3.65 -1.60 -0.20 0.20 -2.15 3 -4.25 6.15 -2.15 3.15 -4.70 6.90 -5.65 8.25 -2.15 3.05 -7.60 8.75 -8.40 8.75 -0.30 0 -0.95 0.45 -1.45 1 -0.50 0.55 -1.10 1 -1.30 1 -0.20 0 -1.45 0.75 -2.75 1.65 -3.40 2.35 -4.85 3.20 -11.45 6.70 -0.55 0.30 -1.55 0.75 -2.25 1.05 -0.70 0.25 -2.80 1.20 -4.75 2.10 -1.90 0.90 -3.95 1.80 -4.50 2 -0.55 0.20 -2 0.85 -3.15 1.45 -1.20 0.55 -2.45 1.05 -2.75 1.05 -0.35 0 -1.95 0.70 -3.60 1.50 -1.65 0.85 -3.25 1.50 -3.60 1.50 -0.35 0 -0.65 0.25 -0.65 0.50 0 0.30 -0.35 0.50 -0.75 0.50 -0.75 0 -1.25 0.20 -3.60 1.40 -0.65 0.35 -1.45 0.60 -1.90 0.60 -0.40 0 -1.50 0.45 -2.50 1 -1 0.55 -2.20 1 -2.75 1 -0.50 0 -1.05 0.20 -1.20 0.45 -0.15 0.20 -1.30 0.70 -2.55 1.05 -1.25 0.35 -2.40 0.85 -2.55 1.05 -0.15 0.25 -0.70 0.45 -1.25 0.45 -0.50 0 -1.35 0.20 -1.85 0.45 -0.45 0.25 -1.50 0.70 -2.35 1.05 -0.80 0.35 -1.90 0.80 -2.35 1.05 -0.50 0.25 -1.35 0.45 -1.90 0.45 -0.55 0 -1 0.25 -1 0.50 0 0.30 -0.90 0.50 -2 0.50 l-2 0 0 -2.05z"/>
  <path d="M29 228.70 c0 -1.05 0.90 -2.70 1.50 -2.70 0.30 0 0.50 0.80 0.50 1.75 0 1.40 -0.20 1.75 -1 1.75 -0.55 0 -1 -0.35 -1 -0.80z"/>
  <path d="M419.50 217.85 c0 -1.45 -1.60 -5.85 -2.90 -7.95 -0.60 -0.90 -1.95 -2.55 -3.05 -3.65 -1.60 -1.50 -2.05 -2.35 -2.05 -3.60 0 -1.35 0.20 -1.65 1.05 -1.65 0.60 0 0.85 0.20 0.70 0.55 -0.20 0.30 1.15 2.05 2.95 3.95 1.80 1.85 3.30 3.50 3.30 3.60 0 0.10 0.45 1.40 1 2.90 0.55 1.50 1 3.70 1 4.85 0 1.80 -0.15 2.15 -1 2.15 -0.70 0 -1 -0.35 -1 -1.15z"/>
  <path d="M34 215.70 c1.30 -3.45 2.50 -4.25 2.50 -1.75 0 2.20 -0.50 3.05 -1.80 3.05 -1.05 0 -1.15 -0.15 -0.70 -1.30z"/>
  <path d="M39 205.70 c0 -0.60 3.25 -5.70 3.60 -5.70 0.25 0 0.40 0.80 0.40 1.75 0 1.20 -0.25 1.75 -0.75 1.75 -0.45 0 -0.75 0.45 -0.75 1.25 0 1 -0.25 1.25 -1.25 1.25 -0.70 0 -1.25 -0.15 -1.25 -0.30z"/>
  <path d="M193.75 196 c-2.15 -2.20 -4.20 -4 -4.50 -4 -0.30 0 -2 -1.50 -3.75 -3.30 -1.80 -1.80 -4.30 -4.05 -5.60 -5.05 -2.30 -1.65 -2.40 -1.85 -2.40 -4.20 l0 -2.45 2.50 0 c1.40 0 2.50 -0.20 2.50 -0.50 0 -0.25 0.90 -0.50 2 -0.50 1.10 0 2 -0.20 2 -0.50 0 -0.25 0.90 -0.50 2 -0.50 1.10 0 2 -0.20 2 -0.50 0 -0.25 1 -0.50 2.25 -0.50 1.25 0 2.25 -0.20 2.25 -0.50 0 -0.25 0.90 -0.50 2 -0.50 1.10 0 2 -0.20 2 -0.50 0 -0.25 0.90 -0.50 2 -0.50 1.10 0 2 -0.20 2 -0.45 0 -0.25 1.65 -0.55 3.65 -0.75 1.95 -0.15 5.50 -0.50 7.85 -0.80 7.40 -0.95 14.05 -1.50 20.80 -1.80 l6.55 -0.30 0.35 6.70 c0.15 3.65 0.55 8.10 0.80 9.90 0.30 1.80 0.65 6 0.80 9.40 l0.30 6.10 -23.15 0 -23.20 0 -4 -4z"/>
  <path d="M274 198.20 c0 -1.20 0.45 -2.40 1.40 -3.65 0.80 -1 1.65 -2.15 1.90 -2.60 1.95 -3.50 19.75 -21.45 21.30 -21.45 0.30 0 1.30 -0.55 2.20 -1.25 1.20 -0.90 2.25 -1.25 3.90 -1.25 1.25 0 2.35 0.20 2.50 0.45 0.15 0.25 1.45 0.55 2.90 0.70 5.80 0.65 7.70 0.95 8.65 1.35 0.55 0.25 1.70 0.55 2.50 0.65 3.15 0.45 10 2 10.50 2.35 0.30 0.20 1.75 0.65 3.25 1 1.50 0.35 3.45 0.90 4.25 1.25 0.85 0.35 2.30 0.80 3.25 1 0.95 0.20 2 0.55 2.30 0.80 0.30 0.25 2.10 1 4 1.65 3.25 1.15 3.45 1.30 3.60 2.90 0.10 1.15 -0.90 4 -3.30 9.65 l-3.45 8 -35.85 0.15 -35.80 0.10 0 -1.80z"/>
  <path d="M359 197.95 c0 -1.50 1.30 -5.15 4.70 -13.15 2.60 -6.05 6.55 -15.40 8.75 -20.75 4.55 -10.95 4.55 -10.55 0.20 -13.35 -1.20 -0.75 -2.15 -1.55 -2.15 -1.75 0 -0.25 -0.45 -0.45 -1 -0.45 -0.55 0 -1 -0.20 -1 -0.50 0 -0.25 -0.45 -0.50 -1 -0.50 -0.55 0 -1 -0.20 -1 -0.50 0 -0.25 -0.55 -0.50 -1.20 -0.50 -1.65 0 -10.75 -4.95 -11.65 -6.35 -0.45 -0.65 -1.20 -1.15 -1.75 -1.15 -0.50 0 -1.20 -0.20 -1.55 -0.50 -0.35 -0.25 -1.95 -1.55 -3.55 -2.85 -1.60 -1.35 -3.55 -3.05 -4.25 -3.90 -0.70 -0.80 -2.15 -2.35 -3.20 -3.50 -2.95 -3.10 -5.35 -8.40 -5.95 -13.05 -1.30 -10.30 1 -18.75 7.35 -26.65 8.40 -10.50 20.35 -17.30 36.25 -20.55 4.45 -0.90 16.25 -1.20 21.15 -0.55 9.65 1.30 20.45 5.10 25.20 8.95 7.25 5.80 13.90 13.90 16.35 19.85 3.90 9.40 5.75 24.50 4.30 34.90 -0.30 2 -0.75 5.30 -1.05 7.35 -2 14.05 -9.60 29.35 -19.75 39.90 -2.50 2.50 -4.85 4.60 -5.30 4.60 -0.40 0 -1.10 0.35 -1.45 0.80 -0.70 0.85 -8.50 6.05 -12.45 8.30 -1.25 0.70 -3.05 1.45 -4 1.65 -1.65 0.30 -3.30 1 -6 2.55 -0.70 0.35 -1.75 0.70 -2.35 0.70 -0.60 0 -1.20 0.20 -1.35 0.40 -0.15 0.25 -1.55 0.70 -3.15 1.05 -1.60 0.30 -3.85 0.80 -5.05 1.05 -1.15 0.30 -6.85 0.50 -12.60 0.50 l-10.50 0 0 -2.05z m36.85 -64.80 c1.70 -0.25 3.25 -0.60 3.45 -0.75 0.15 -0.20 -0.45 -2.65 -1.35 -5.45 l-1.70 -5.15 -9.50 0 -9.50 -0.05 -4.20 -2.60 -4.15 -2.55 -1.80 1.55 c-1 0.90 -2.70 2.45 -3.85 3.45 l-2 1.85 1.95 1.65 c4.25 3.55 14.15 7.90 18.10 7.90 0.80 0 1.80 0.25 2.20 0.50 0.80 0.55 7.20 0.35 12.35 -0.35z m32.90 -16.10 c3.95 -1.40 4 -1.45 3.85 -3 -0.10 -0.85 -0.70 -2.90 -1.40 -4.55 -0.65 -1.60 -1.85 -5.05 -2.70 -7.65 -2 -6.35 -3.05 -7.75 -7 -9.70 -3.15 -1.50 -18.50 -6.85 -18.80 -6.50 -0.10 0.10 -0.95 2.30 -1.90 4.90 l-1.70 4.75 8.70 3.25 8.70 3.20 1.20 3.50 c0.70 1.95 2.05 5.80 3.10 8.60 2.10 5.85 1.30 5.55 7.95 3.20z"/>
  <path d="M415.50 198.85 c0 -0.90 0.80 -1.70 3.40 -3.40 4.10 -2.70 16.05 -14.75 19.85 -20 5.30 -7.40 10.25 -17.05 12.20 -23.95 0.35 -1.25 0.90 -2.80 1.20 -3.50 1.15 -2.80 3.05 -14.10 3.60 -21.35 0.25 -3.05 0.55 -4.65 0.95 -4.65 0.80 0 1.75 2.75 1.25 3.55 -0.25 0.40 -0.45 2.65 -0.45 5.05 0 2.40 -0.20 4.50 -0.50 4.65 -0.25 0.15 -0.50 1.40 -0.50 2.75 0 1.35 -0.20 2.60 -0.50 2.75 -0.25 0.15 -0.50 1.30 -0.50 2.55 0 1.20 -0.20 2.20 -0.50 2.20 -0.25 0 -0.50 1 -0.50 2.25 0 1.25 -0.20 2.25 -0.50 2.25 -0.25 0 -0.50 0.65 -0.50 1.45 0 0.85 -0.20 1.65 -0.50 1.80 -0.25 0.15 -0.50 0.95 -0.50 1.80 0 0.80 -0.20 1.45 -0.50 1.45 -0.25 0 -0.50 0.45 -0.50 1 0 0.60 -0.35 1.60 -0.80 2.25 -0.45 0.70 -0.65 1.25 -0.45 1.25 0.15 0 -0.05 0.35 -0.45 0.80 -0.45 0.40 -0.70 0.95 -0.55 1.20 0.15 0.25 0.05 0.50 -0.20 0.60 -0.25 0.05 -0.55 0.50 -0.65 0.90 -0.10 0.40 -0.45 1.05 -0.80 1.40 -0.35 0.40 -0.50 0.90 -0.35 1.15 0.20 0.25 0.05 0.45 -0.20 0.45 -0.30 0 -0.55 0.30 -0.55 0.65 0 0.35 -0.80 1.80 -1.75 3.30 -0.95 1.45 -1.75 2.75 -1.75 2.90 0 0.30 -1.40 2.05 -5.90 7.35 -3.55 4.25 -8.75 9.50 -11.95 12.10 -2.40 2 -8.70 6.20 -9.25 6.20 -0.20 0 -0.40 -0.50 -0.40 -1.15z"/>
  <path d="M43.20 198.20 c0.45 -1.15 8.10 -11.90 9.05 -12.70 0.65 -0.55 0.75 -0.35 0.75 1.20 0 1.15 -0.25 1.95 -0.75 2.10 -0.40 0.20 -0.75 0.60 -0.75 1 0 0.40 -0.20 0.70 -0.50 0.70 -0.25 0 -0.50 0.35 -0.50 0.75 0 0.45 -0.35 0.90 -0.75 1.05 -0.40 0.20 -0.75 0.60 -0.75 1 0 0.40 -0.20 0.70 -0.50 0.70 -0.25 0 -0.50 0.35 -0.50 0.75 0 0.45 -0.35 0.90 -0.75 1.05 -0.40 0.20 -0.75 0.60 -0.75 1 0 0.40 -0.20 0.70 -0.50 0.70 -0.25 0 -0.50 0.35 -0.50 0.75 0 0.45 -0.50 0.75 -1.30 0.75 -1 0 -1.25 -0.20 -1 -0.80z"/>
  <path d="M255.75 196.15 c-1.30 -3.25 -2.45 -14.60 -2.45 -23.65 0.05 -9.05 0.45 -11.95 2.15 -15.75 1.15 -2.60 5.25 -7.25 6.40 -7.25 0.35 0 0.65 -0.20 0.65 -0.50 0 -0.25 0.45 -0.50 0.95 -0.50 0.55 0 1.30 -0.35 1.75 -0.75 0.40 -0.40 1.20 -0.75 1.75 -0.75 0.60 0 1.05 -0.25 1.05 -0.55 0 -0.40 3.30 -0.50 11.15 -0.35 12.30 0.15 12.50 0.20 16.50 3.90 2.45 2.20 3.35 3.95 3.35 6.35 0 1.75 -0.25 2.05 -2.80 3.90 -1.55 1.10 -3.10 2.25 -3.40 2.50 -0.30 0.30 -1.35 1.05 -2.30 1.75 -3.90 2.65 -9.60 7.90 -12.50 11.55 -0.95 1.20 -2.35 2.85 -3.10 3.70 -0.70 0.80 -3.20 3.75 -5.45 6.50 -2.30 2.75 -5.45 6.30 -7.05 7.90 -2.40 2.35 -3.20 2.85 -4.60 2.85 -1.15 0 -1.80 -0.30 -2.05 -0.85z"/>
  <path d="M55 182.50 c1.90 -2.70 9.10 -10.05 11.35 -11.55 l2.15 -1.50 0 1.45 c0 1.10 -0.60 1.95 -2.70 3.75 -1.50 1.30 -3.10 2.35 -3.50 2.35 -0.45 0 -0.80 0.35 -0.80 0.80 0 0.45 -1.05 2 -2.30 3.50 -1.85 2.15 -2.65 2.70 -3.80 2.70 l-1.45 0 1.05 -1.50z"/>
  <path d="M69.80 167.95 c1.30 -1.40 7.50 -6.10 12.70 -9.65 5.35 -3.60 21.80 -11.75 27.80 -13.75 4.75 -1.60 14.85 -4.05 16.70 -4.05 0.80 0 1.05 0.25 0.90 1.15 -0.10 0.90 -0.50 1.10 -2.40 1.25 -1.25 0.10 -2.45 0.35 -2.75 0.65 -0.25 0.25 -1.25 0.45 -2.25 0.45 -1 0 -2 0.15 -2.20 0.35 -0.50 0.55 -3.95 1.65 -5.15 1.65 -0.60 0 -1.25 0.25 -1.40 0.50 -0.15 0.30 -1.10 0.50 -2.05 0.50 -0.95 0 -1.70 0.20 -1.70 0.40 0 0.45 -3.80 2.60 -4.60 2.60 -0.70 0 -8.40 3.80 -12.45 6.10 -1.80 1.05 -3.65 1.90 -4.15 1.90 -0.45 0 -0.80 0.20 -0.80 0.50 0 0.25 -1.40 1.40 -3.10 2.55 -1.75 1.15 -4.85 3.45 -6.95 5.05 -2.85 2.20 -4.20 2.90 -5.45 2.90 -1.65 0 -1.65 0 -0.70 -1.05z"/>
  <path d="M160.25 166 c-1.90 -1.60 -4.90 -4.35 -6.65 -6.20 -1.75 -1.80 -3.35 -3.30 -3.55 -3.30 -0.20 0 -2.05 -1.55 -4.10 -3.40 -2.05 -1.85 -5.65 -4.90 -8.05 -6.80 -2.45 -1.85 -4.40 -3.60 -4.40 -3.85 0 -0.25 -0.80 -0.45 -1.75 -0.45 -2.20 0 -2.30 -1.05 -0.20 -1.85 1.45 -0.55 1.75 -0.45 4.40 1.50 6.15 4.60 11.35 9.05 20.55 17.60 2.40 2.20 5.45 4.95 6.85 6.10 l2.55 2.10 5.35 -1.75 c5.85 -1.90 7.75 -2.45 17.55 -4.95 6.25 -1.60 19.85 -4.25 21.85 -4.25 0.65 0 0.90 0.30 0.75 1.15 -0.15 1 -0.45 1.10 -3.25 1.25 -1.75 0.10 -3.15 0.35 -3.15 0.60 0 0.30 -1.20 0.50 -2.70 0.50 -1.50 0 -2.90 0.25 -3.05 0.50 -0.15 0.30 -1.05 0.50 -2 0.50 -0.95 0 -1.85 0.25 -2 0.50 -0.15 0.30 -1.20 0.50 -2.30 0.50 -1.05 0 -1.95 0.25 -1.95 0.50 0 0.30 -0.75 0.50 -1.70 0.50 -0.95 0 -1.90 0.25 -2.05 0.50 -0.15 0.30 -1.05 0.50 -2 0.50 -0.95 0 -1.85 0.25 -2 0.50 -0.15 0.30 -0.95 0.50 -1.75 0.50 -0.80 0 -1.60 0.25 -1.75 0.50 -0.15 0.30 -0.95 0.50 -1.75 0.50 -0.80 0 -1.60 0.25 -1.75 0.50 -0.15 0.30 -0.85 0.50 -1.50 0.50 -0.65 0 -1.35 0.25 -1.50 0.50 -0.15 0.30 -0.85 0.50 -1.50 0.50 -0.65 0 -1.35 0.25 -1.50 0.50 -0.15 0.30 -1.70 0.50 -3.40 0.45 -3 0 -3.20 -0.10 -6.60 -2.95z"/>
  <path d="M351 168.55 c-1.15 -0.65 -8.30 -3 -12.45 -4.10 -2 -0.55 -4.60 -1.30 -5.75 -1.70 -1.10 -0.40 -2.65 -0.75 -3.40 -0.75 -0.75 0 -1.50 -0.20 -1.65 -0.50 -0.15 -0.25 -1.05 -0.50 -1.95 -0.50 -0.85 0 -1.80 -0.20 -2.10 -0.45 -0.25 -0.25 -1.35 -0.55 -2.45 -0.70 -1.10 -0.20 -3.10 -0.55 -4.50 -0.80 -1.35 -0.30 -3.20 -0.65 -4.05 -0.85 -1.70 -0.30 -1.95 -0.70 -3.85 -5.60 -1.95 -4.90 -4.35 -8.55 -7.25 -10.80 -1.45 -1.10 -2.70 -2.40 -2.85 -2.85 -0.30 -0.90 -8.30 -3.25 -13 -3.85 -2.65 -0.30 -3 -0.50 -3.15 -1.55 l-0.20 -1.20 3.95 0.35 c7.85 0.65 13.50 3.25 18.45 8.40 3.55 3.75 4.60 5.40 6.45 10.40 1.70 4.50 1.70 4.45 3.55 4.80 10.85 1.80 26.45 5.90 36.65 9.65 2.35 0.85 4.50 1.55 4.80 1.55 0.30 0 0.85 -0.85 1.20 -1.85 0.40 -1.05 1.10 -2.80 1.60 -3.85 0.55 -1.10 0.95 -2.15 0.95 -2.40 0 -0.25 -1.25 -0.95 -2.75 -1.65 -3.10 -1.35 -11.60 -6.25 -14.25 -8.20 -7.25 -5.30 -14.75 -13.15 -18.40 -19.20 -2.20 -3.65 -4.30 -9.95 -4.80 -14.20 -0.30 -2.40 -0.25 -2.65 0.60 -2.65 0.80 0 1 0.50 1.25 2.55 0.20 1.40 0.50 2.80 0.75 3.15 0.25 0.30 0.60 1.35 0.80 2.30 0.75 4.40 5.10 10.80 12 17.75 7.25 7.30 11.40 10.30 22 15.80 4.55 2.30 4.55 2.35 4.70 4.40 0.10 1.20 -0.05 2.05 -0.35 2.05 -0.30 0 -0.55 0.45 -0.55 1 0 0.55 -0.20 1 -0.50 1 -0.25 0 -0.50 0.45 -0.50 1 0 1.85 -1.10 3.50 -2.35 3.50 -0.60 0 -1.15 0.25 -1.15 0.50 0 0.60 -4.45 0.60 -5.50 0.05z"/>
  <path d="M213 157.30 c0 -0.45 0.95 -0.90 2.50 -1.25 3.65 -0.80 4 -0.70 4 0.70 0 1.20 -0.10 1.25 -3.25 1.25 -2.45 0 -3.25 -0.15 -3.25 -0.70z"/>
  <path d="M225 156.30 c0 -0.85 1.30 -1.20 5.90 -1.65 l3.60 -0.30 0 1.35 0 1.30 -4.75 0 c-3.70 0 -4.75 -0.15 -4.75 -0.70z"/>
  <path d="M240 155.30 c0 -0.40 0.55 -0.85 1.20 -1 0.80 -0.20 1.40 -0.85 1.75 -1.95 1 -2.90 4.30 -7.50 7.85 -10.85 4.15 -3.90 10.25 -7.10 15.60 -8.25 5.05 -1.05 5.70 -1 5.50 0.40 -0.15 0.95 -0.50 1.10 -2.50 1.25 -1.35 0.10 -2.40 0.35 -2.40 0.65 0 0.25 -0.60 0.45 -1.35 0.50 -0.80 0 -2.40 0.50 -3.65 1.10 -8.25 4.05 -12.70 8.25 -16.55 15.75 -1.50 3 -1.65 3.10 -3.50 3.10 -1.35 0 -1.95 -0.20 -1.95 -0.70z"/>
  <path d="M455.50 117.65 c0 -3.40 -0.55 -7.15 -2 -13.65 -3.05 -13.80 -12.75 -28 -25.25 -37.05 -8.15 -5.90 -23.55 -11.45 -31.85 -11.45 -1.55 0 -1.90 -0.15 -1.90 -1 0 -0.95 0.35 -1 4.50 -1 2.45 0 4.95 0.20 5.60 0.45 0.65 0.25 2.85 0.85 4.90 1.30 6.40 1.45 14.90 5.40 20.50 9.55 6.15 4.55 12.45 11.10 16.95 17.70 1.70 2.50 5.55 10 5.55 10.80 0 0.40 0.25 0.70 0.50 0.70 0.30 0 0.50 0.65 0.50 1.45 0 0.85 0.25 1.65 0.50 1.80 0.30 0.15 0.50 0.85 0.50 1.50 0 0.65 0.25 1.35 0.50 1.50 0.30 0.15 0.50 1.05 0.50 2 0 0.95 0.25 1.85 0.50 2 0.30 0.15 0.50 1.30 0.50 2.50 0 1.20 0.25 2.35 0.50 2.50 0.30 0.20 0.50 2.85 0.50 6.30 0 5.60 -0.05 5.95 -1 5.95 -0.90 0 -1 -0.35 -1 -3.85z"/>
  <path d="M319.75 106.65 c0.70 -8.95 3.40 -16 9.15 -24.05 3.30 -4.65 11.20 -12.35 15.75 -15.35 0.85 -0.55 2.05 -1.35 2.65 -1.75 4.60 -3.15 15.20 -8 17.60 -8 0.50 0 1.10 -0.20 1.40 -0.45 0.25 -0.30 1.05 -0.55 1.80 -0.65 0.75 -0.10 1.50 -0.35 1.70 -0.55 0.20 -0.20 1.20 -0.35 2.25 -0.35 1.05 0 2.05 -0.25 2.20 -0.50 0.15 -0.30 1.40 -0.50 2.80 -0.50 1.35 0 2.45 -0.20 2.45 -0.50 0 -0.30 1.75 -0.50 4.25 -0.50 2.50 0 4.25 -0.20 4.25 -0.50 0 -0.25 0.90 -0.50 2.05 -0.50 1.20 0 1.90 0.20 1.70 0.50 -0.15 0.30 0.05 0.50 0.45 0.50 0.45 0 0.80 0.30 0.80 0.70 0 0.50 -1.10 0.80 -4.10 1.05 -10.55 0.85 -20.55 3.25 -30.15 7.25 -8.20 3.40 -17.05 9.65 -23.35 16.45 -4.30 4.70 -10.05 13.25 -10.95 16.30 -0.35 1.25 -0.85 2.25 -1.05 2.25 -0.20 0 -0.40 0.55 -0.40 1.25 0 0.70 -0.20 2.20 -0.50 3.35 -0.25 1.20 -0.65 3.65 -0.80 5.55 -0.25 2.95 -0.40 3.35 -1.30 3.35 -0.95 0 -1 -0.20 -0.65 -4.35z"/>
 </g>
 <g fill="#007c32">
  <path d="M357.45 322.65 c-3.90 -3.70 -6.25 -7.20 -5.30 -7.90 1.65 -1.30 9.80 -11.50 12.75 -16 4.95 -7.60 6.10 -9.50 6.10 -10.05 0 -0.10 -1.80 -0.20 -4 -0.20 -2.35 0 -4 0.20 -4 0.50 0 0.30 -1.75 0.50 -4.25 0.50 -2.50 0 -4.25 0.20 -4.25 0.50 0 0.30 -1.65 0.50 -4 0.50 -2.35 0 -4 0.20 -4 0.50 0 0.30 -1.60 0.50 -3.75 0.50 -2.15 0 -3.75 0.20 -3.75 0.50 0 0.30 -0.60 0.50 -1.35 0.50 -0.80 0 -1.80 0.55 -2.65 1.50 -1.90 2.15 -4.20 1.65 -7.80 -1.65 -3.20 -2.90 -4.40 -4.95 -4.05 -6.80 0.20 -0.90 -0.25 -2.10 -1.40 -4.05 -1.85 -3.05 -8.80 -12.45 -12.10 -16.30 -1.15 -1.35 -2.90 -3.45 -3.85 -4.60 -1 -1.20 -1.80 -2.05 -1.80 -1.85 0 0.20 -0.75 -0.45 -1.65 -1.45 -1.20 -1.30 -2.10 -1.80 -3.20 -1.80 -1.60 0 -10 -2.75 -11 -3.60 -1.05 -0.85 -0.75 -3.25 0.85 -6.40 1.70 -3.35 1.30 -3.20 8.30 -3 3.50 0.05 4.70 -0.05 5.25 -0.65 0.40 -0.40 4.45 -4.55 9.05 -9.15 l8.30 -8.45 0.20 -5.75 0.15 -5.75 -37.30 -0.25 -37.25 -0.25 -1.50 -1.75 c-2.95 -3.35 -4.20 -5.65 -4.20 -7.60 0 -2.30 0.90 -4.40 1.90 -4.40 0.60 0 0.65 -0.75 0.40 -4.60 -0.15 -2.55 -0.50 -6.10 -0.80 -7.90 -0.25 -1.80 -0.65 -6.25 -0.80 -9.90 l-0.35 -6.70 -5.80 0.30 c-6.40 0.30 -14 1 -20.55 1.80 -2.35 0.30 -5.15 0.55 -6.25 0.65 l-2 0.10 0.05 -2.30 c0 -2 0.45 -2.90 3.35 -7.10 1.85 -2.65 3.35 -5.20 3.35 -5.60 0 -0.60 0.65 -0.75 2.75 -0.75 1.50 0 2.75 -0.20 2.75 -0.50 0 -0.30 2.85 -0.50 7.50 -0.50 4.65 0 7.50 -0.20 7.50 -0.50 0 -0.30 1.90 -0.50 4.70 -0.50 l4.70 0 1.55 -3.10 c3.85 -7.50 8.65 -12.05 16.70 -15.80 1.30 -0.60 2.90 -1.15 3.60 -1.20 0.70 -0.05 1.25 -0.30 1.25 -0.50 0 -0.20 1 -0.40 2.20 -0.40 1.25 0 2.40 -0.20 2.55 -0.50 0.45 -0.75 13.40 -0.65 14.15 0.10 0.50 0.50 0.75 0.50 1.05 -0.05 0.25 -0.40 0.50 -0.45 0.60 -0.15 0.10 0.30 1.20 0.65 2.45 0.80 1.25 0.15 3.35 0.60 4.70 1.05 1.30 0.40 2.60 0.60 2.85 0.45 0.25 -0.15 0.45 -0.05 0.45 0.25 0 0.30 0.30 0.40 0.65 0.25 0.60 -0.20 4.30 2.80 8.10 6.60 1.75 1.75 4.85 7.40 5.75 10.45 0.80 2.75 1.55 3.60 3.25 3.80 0.85 0.10 1.60 0.35 1.75 0.55 0.15 0.15 1.25 0.35 2.50 0.45 1.25 0.10 2.35 0.30 2.50 0.50 0.15 0.25 1.30 0.45 2.60 0.50 1.30 0.10 2.25 0.30 2.10 0.55 -0.15 0.20 0.50 0.40 1.40 0.40 0.95 0 2 0.30 2.35 0.65 0.55 0.50 0.60 0.45 0.30 -0.15 -0.35 -0.60 -0.30 -0.65 0.30 -0.15 0.40 0.30 1.40 0.65 2.20 0.70 0.85 0.10 1.60 0.35 1.75 0.55 0.15 0.20 0.85 0.40 1.50 0.50 0.70 0.10 1.55 0.35 1.90 0.55 0.35 0.25 1.30 0.45 2.10 0.45 0.85 0.05 1.50 0.25 1.50 0.50 0 0.20 0.40 0.40 0.95 0.40 0.50 0 1.75 0.35 2.75 0.75 1 0.45 2.05 0.65 2.30 0.50 0.30 -0.20 0.50 -0.10 0.50 0.15 0 0.25 0.95 0.70 2.15 1.05 1.15 0.35 2.50 0.85 2.95 1.10 0.50 0.25 1.65 0.45 2.55 0.45 1.50 0 1.80 -0.20 2.60 -2.10 0.45 -1.20 1.30 -3.05 1.85 -4.15 l0.95 -1.95 -1.15 -0.90 c-0.65 -0.50 -1.40 -0.90 -1.70 -0.90 -0.80 0 -12.40 -6.75 -15.60 -9.10 -3.90 -2.80 -13.55 -12.65 -15.70 -15.95 -2.65 -4 -4.35 -7.45 -4.70 -9.45 -0.20 -0.95 -0.50 -2 -0.75 -2.30 -1.05 -1.35 -1.55 -7.95 -1 -12.95 0.65 -5.65 1.45 -10 2.05 -11.50 0.25 -0.55 0.80 -2.05 1.25 -3.30 0.90 -2.50 7.15 -12 8.15 -12.35 0.40 -0.10 0.60 0.40 0.60 1.60 0 1 -0.20 1.80 -0.50 1.80 -0.25 0 -0.50 0.35 -0.50 0.75 0 0.45 -0.35 0.90 -0.75 1.05 -1.50 0.60 -0.75 2.55 2.25 5.85 2.20 2.40 3.45 3.35 4.50 3.45 1.45 0.15 1.45 0.20 0.75 1.65 -2.75 6 -3.60 11.25 -2.80 17.20 0.55 4.40 3.05 9.80 5.90 12.80 1.05 1.15 2.50 2.70 3.20 3.50 0.70 0.85 2.65 2.55 4.25 3.90 4 3.20 3.80 3.10 4.95 3.25 0.55 0.10 1.45 0.70 2 1.40 1.45 1.75 10.15 6.30 11.30 5.95 0.60 -0.20 1.05 -0.05 1.25 0.45 0.15 0.40 0.60 0.60 1 0.45 0.35 -0.15 0.80 0.10 1 0.50 0.15 0.45 0.60 0.65 1 0.50 0.35 -0.15 0.85 0.10 1 0.55 0.20 0.45 0.95 1.15 1.65 1.55 1.70 0.85 4.45 3.60 4.80 4.80 0.30 0.90 -2.45 7.80 -12.30 31 -3 7.05 -5.45 13.10 -5.45 13.40 0 0.70 17 0.75 20.10 0.05 1.20 -0.25 3.45 -0.75 5.05 -1.05 1.60 -0.35 3 -0.80 3.15 -1.05 0.15 -0.20 0.70 -0.40 1.20 -0.40 1.10 0 2.70 -0.65 4.75 -1.95 0.85 -0.55 2 -1 2.65 -1 0.60 -0.05 1.10 -0.25 1.10 -0.55 0 -0.25 0.30 -0.35 0.70 -0.20 0.40 0.15 1.80 -0.35 3.15 -1.10 3.90 -2.25 12.05 -7.65 12.40 -8.20 0.15 -0.30 1.10 -0.85 2.05 -1.25 0.95 -0.40 1.70 -1 1.70 -1.35 0 -0.35 2.10 1.40 4.65 3.90 2.50 2.50 5.05 4.75 5.60 4.95 0.90 0.30 0.60 0.70 -2.25 3.30 -3 2.70 -9.70 7.55 -12.35 8.90 -1.60 0.80 -1.45 1.55 0.90 3.80 1.10 1.10 2.45 2.75 3.05 3.65 2.80 4.55 4.20 12.50 2.75 16 -0.40 1 -1.25 3.10 -1.80 4.60 -1.65 4.25 -5.80 8.60 -10.30 10.75 -2.05 0.95 -4.30 1.75 -5 1.75 -0.70 0 -1.25 0.20 -1.25 0.45 0 0.25 -0.65 0.60 -1.45 0.80 -1.50 0.30 -1.70 0.65 -2.55 5.25 -1.05 5.90 -4.05 19.10 -5 22.25 -0.60 1.95 -1.55 5.10 -2.10 7 -2.65 9.05 -11.85 26.55 -18.50 35.15 -4.20 5.45 -11.10 13.10 -11.80 13.10 -0.40 0 -2 -1.30 -3.65 -2.85z m-11.45 -46.20 c2.35 -0.25 6.15 -0.70 8.50 -0.95 2.35 -0.25 6.30 -0.70 8.75 -1 2.50 -0.30 6.40 -0.70 8.75 -0.95 6.25 -0.65 7 -0.90 7 -2.80 0 -0.65 0.20 -1.70 0.45 -2.35 0.40 -1 2.75 -10.90 4 -16.90 0.30 -1.25 0.65 -3.75 0.80 -5.60 l0.35 -3.40 -2.05 0 c-1.15 0 -2.05 -0.20 -2.05 -0.45 0 -0.25 -0.55 -0.60 -1.25 -0.75 l-1.30 -0.35 0.15 -6.60 0.15 -6.60 10.25 -0.30 c14.45 -0.45 15.65 -0.75 17.45 -3.95 2.10 -3.80 0.75 -8.05 -3.35 -10.35 -0.85 -0.50 -8.70 -0.65 -34.60 -0.65 l-33.50 0 0 7.25 c0 10.05 -0.10 10.20 -10.70 20.75 -4.55 4.55 -8.30 8.60 -8.30 9.05 0 0.45 0.35 1.10 0.75 1.45 0.40 0.35 2 2.25 3.50 4.20 1.50 1.95 4.10 5.25 5.75 7.30 1.70 2.05 3.45 4.35 3.90 5.15 0.45 0.75 1 1.35 1.20 1.35 0.20 0 0.90 0.80 1.55 1.75 0.65 0.95 2.15 2.85 3.35 4.30 2.15 2.45 2.30 2.50 4.25 2.20 1.10 -0.15 3.90 -0.50 6.25 -0.80z m1.55 -86.20 c1.90 -4.35 3.30 -8.10 3.05 -8.25 -0.20 -0.15 -1.60 -0.70 -3.10 -1.20 -1.50 -0.55 -3.20 -1.20 -3.75 -1.50 -0.55 -0.25 -1.10 -0.55 -1.25 -0.55 -1.75 -0.40 -4.90 -1.45 -5.35 -1.85 -0.35 -0.30 -0.65 -0.40 -0.65 -0.25 0 0.25 -4.25 -0.80 -6 -1.50 -1.35 -0.55 -7.60 -2 -10.50 -2.45 -0.95 -0.15 -2.20 -0.45 -2.75 -0.70 -0.95 -0.40 -3.70 -0.80 -8.75 -1.30 -1.25 -0.15 -2.45 -0.45 -2.70 -0.70 -0.80 -0.80 -1.75 -0.60 -3.50 0.75 -0.90 0.70 -1.90 1.25 -2.20 1.25 -1.55 0 -19.35 17.95 -21.30 21.45 -0.25 0.45 -1.10 1.60 -1.90 2.60 -0.75 1 -1.40 2 -1.40 2.15 0 0.15 15.45 0.25 34.30 0.20 l34.35 -0.15 3.40 -8z m-86.65 2.40 c1.60 -1.60 4.75 -5.15 7.05 -7.90 2.25 -2.75 4.75 -5.70 5.45 -6.50 0.75 -0.85 2.15 -2.50 3.10 -3.70 2.95 -3.65 8.65 -8.95 12.50 -11.55 0.95 -0.65 1.85 -1.35 2 -1.50 0.15 -0.20 1.25 -1.05 2.50 -1.90 4 -2.80 4.10 -2.95 3.75 -4.15 -0.50 -1.50 -4.05 -5.25 -5.95 -6.25 -2.20 -1.15 -3.45 -1.30 -13.15 -1.55 -5.80 -0.15 -8.65 0 -8.65 0.35 0 0.25 -0.55 0.50 -1.25 0.50 -0.70 0 -1.25 0.20 -1.25 0.45 0 0.25 -0.65 0.60 -1.50 0.80 -0.80 0.20 -1.50 0.55 -1.50 0.80 0 0.25 -0.30 0.45 -0.70 0.45 -0.80 0 -6.05 5.45 -5.65 5.85 0.20 0.15 -0.05 0.60 -0.45 1 -0.40 0.45 -0.65 1.05 -0.50 1.45 0.15 0.35 0 0.70 -0.30 0.80 -1.50 0.50 -2.10 15 -1 23.65 0.95 7.75 1.80 11.75 2.40 11.75 0.10 0 1.50 -1.30 3.10 -2.85z"/>
  <path d="M348.50 234.50 l0 -8 6.95 0 c5.30 0 7.05 0.15 7.50 0.70 0.40 0.45 0.55 3 0.45 7.85 l-0.15 7.20 -7.35 0.15 -7.40 0.15 0 -8.05z"/>
  <path d="M432.50 183.95 c0 -1.90 1.65 -3.95 3.15 -3.95 0.60 0 0.85 -0.40 0.85 -1.25 0 -0.70 0.35 -1.40 0.75 -1.55 0.40 -0.20 0.75 -0.65 0.75 -1 0 -0.40 0.35 -0.85 0.75 -1 0.40 -0.20 0.75 -0.65 0.75 -1.05 0 -0.40 0.45 -0.85 1 -1 0.65 -0.15 1 -0.70 1 -1.45 0 -1 0.25 -1.20 1.55 -1.20 l1.55 0 -0.85 1.40 c-2.60 4 -6.55 9.20 -8.75 11.35 l-2.50 2.45 0 -1.75z"/>
  <path d="M444 168.25 c0 -1.55 0.15 -1.75 1.25 -1.75 1.45 0 1.50 0.10 0.50 2 -1.05 2 -1.75 1.90 -1.75 -0.25z"/>
  <path d="M447.50 161.65 c0 -0.75 0.35 -2.35 0.80 -3.50 0.65 -1.70 1.10 -2.15 2.05 -2.15 0.70 0 1.15 0.15 1.05 0.40 -0.05 0.20 -0.70 1.75 -1.40 3.50 -1.30 3.25 -2.50 4.10 -2.50 1.75z"/>
  <path d="M450.50 153.65 c0 -2.40 0.55 -3.65 1.55 -3.65 1.10 0 1.20 0.95 0.35 3.35 -0.75 2 -1.90 2.20 -1.90 0.30z"/>
  <path d="M454 138.75 c0 -1.55 0.15 -1.75 1.25 -1.75 1.45 0 1.40 -0.10 0.70 1.95 -0.75 2.15 -1.95 2.05 -1.95 -0.20z"/>
  <path d="M382.40 135.20 c-0.20 -0.15 -1.05 -0.35 -2 -0.50 -4.05 -0.55 -10.40 -2.85 -14.45 -5.30 -3.95 -2.35 -7.45 -5 -7.45 -5.65 0 -0.30 0.80 -1.30 1.75 -2.25 l1.75 -1.70 0 1.30 c0 1.70 0.45 2.90 1.15 2.90 0.25 0 1.20 0.55 2.05 1.20 0.85 0.60 2.35 1.55 3.30 2.05 0.95 0.50 1.85 1.05 2 1.20 0.25 0.35 5.85 2.20 9.25 3.05 1.10 0.25 3.35 0.50 5.05 0.50 4.15 0 6.20 0.75 6.20 2.30 0 1.15 -0.10 1.20 -4.15 1.20 -2.30 0 -4.30 -0.15 -4.45 -0.30z"/>
  <path d="M392.50 133.90 l0 -1.70 3.50 -0.60 c4.70 -0.80 4.95 -0.80 5.45 0.55 0.55 1.45 -0.30 1.95 -3.95 2.40 -1.50 0.20 -3.25 0.50 -3.85 0.70 -1.05 0.35 -1.15 0.20 -1.15 -1.35z"/>
  <path d="M455 133 c0 -1.65 0.15 -2 1 -2 1.05 0 1.35 1.50 0.70 3.20 -0.65 1.65 -1.70 0.85 -1.70 -1.20z"/>
  <path d="M455.50 125.05 c0 -3.25 0.10 -3.55 1 -3.55 0.95 0 1.05 0.25 0.90 3.35 -0.10 2.75 -0.30 3.40 -1 3.55 -0.80 0.15 -0.90 -0.25 -0.90 -3.35z"/>
  <path d="M420.80 119.35 c-0.45 -1.15 -1.65 -4.45 -2.70 -7.35 -1.10 -2.90 -2.25 -6.05 -2.55 -7 -0.55 -1.70 -0.75 -1.80 -9.35 -5 -4.85 -1.80 -8.95 -3.50 -9.05 -3.85 -0.35 -0.85 2.50 -8.30 3.25 -8.55 0.70 -0.20 0.80 3.95 0.15 5.65 -0.50 1.25 0.25 2 2.35 2.40 0.90 0.20 2 0.70 2.40 1.10 0.45 0.40 1.45 0.75 2.25 0.75 0.80 0 1.45 0.20 1.45 0.45 0 0.25 0.90 0.55 2 0.75 1.10 0.15 2 0.55 2 0.80 0 0.30 0.45 0.50 1 0.50 1.85 0 4 2.80 4 5.20 0 0.70 0.20 1.30 0.40 1.30 0.50 0 1.60 3 1.60 4.40 0 0.60 0.20 1.10 0.40 1.10 0.50 0 1.60 3 1.60 4.40 0 0.60 0.25 1.10 0.50 1.10 0.30 0 0.50 0.35 0.50 0.75 0 0.40 0.35 0.75 0.80 0.75 1.30 0 0.55 1.65 -0.90 2.05 -1.25 0.30 -1.40 0.20 -2.10 -1.70z"/>
  <path d="M455 112.45 c0 -1.65 0.15 -2 0.90 -1.85 0.60 0.10 0.90 0.70 1 2.05 0.15 1.60 0 1.85 -0.85 1.85 -0.90 0 -1.05 -0.30 -1.05 -2.05z"/>
  <path d="M453.50 104.25 c0 -1.10 0.25 -1.75 0.65 -1.75 0.40 0 0.90 0.80 1.20 1.75 0.55 1.65 0.50 1.75 -0.65 1.75 -1.05 0 -1.20 -0.25 -1.20 -1.75z"/>
  <path d="M452.50 100.25 c0 -1.85 1.15 -2.50 1.65 -0.85 0.10 0.45 0.40 1.25 0.60 1.75 0.30 0.70 0.10 0.85 -0.95 0.85 -1.15 0 -1.30 -0.20 -1.30 -1.75z"/>
  <path d="M449.70 93 c-0.20 -0.80 -0.50 -1.50 -0.75 -1.50 -0.25 0 -0.45 -0.80 -0.45 -1.75 0 -3.35 1.45 -1.75 3.90 4.35 0.10 0.20 -0.40 0.40 -1.10 0.40 -1.05 0 -1.40 -0.30 -1.60 -1.50z"/>
  <path d="M445.50 84.50 c0 -1.15 -0.20 -1.50 -1 -1.50 -0.65 0 -1 -0.35 -1 -1 0 -0.55 -0.35 -1 -0.75 -1 -0.50 0 -0.75 -0.55 -0.75 -1.75 0 -1.60 -0.15 -1.75 -1.40 -1.75 -1.80 0 -2.60 -0.80 -2.60 -2.60 0 -1.20 -0.20 -1.40 -1.40 -1.40 -2 0 -4.10 -2.30 -4.10 -4.45 l0 -1.65 3.30 3.05 c3.50 3.30 7.40 7.75 10.25 11.80 2.70 3.80 2.70 3.75 1 3.75 -1.40 0 -1.55 -0.15 -1.55 -1.50z"/>
  <path d="M346 84.05 c0 -1.85 2.30 -5.05 3.60 -5.05 0.45 0 1 -0.20 1.15 -0.50 0.35 -0.60 3.75 -0.70 3.75 -0.10 0 0.25 -0.95 1.05 -2.05 1.90 -1.15 0.80 -3.05 2.30 -4.25 3.40 l-2.20 1.95 0 -1.60z"/>
  <path d="M425.65 81.10 c-1.15 -1 -2.85 -2.45 -3.80 -3.20 -1.70 -1.40 -9.80 -5.50 -11.85 -6.05 -0.70 -0.20 -1.05 -0.60 -0.90 -1.20 0.20 -1.20 3.90 -1.65 3.90 -0.45 0 0.55 0.45 0.80 1.45 0.80 0.80 0 1.80 0.35 2.25 0.75 0.40 0.40 1.10 0.75 1.50 0.75 0.45 0 0.80 0.25 0.80 0.50 0 0.30 0.45 0.50 1 0.50 0.80 0 1 0.35 1 1.50 0 1.40 0.15 1.50 1.80 1.50 2.55 0 5.35 2.65 5.10 4.90 l-0.15 1.55 -2.10 -1.85z"/>
  <path d="M357.50 75.50 c0 -1 0.25 -1.50 0.75 -1.50 0.40 0 0.95 -0.45 1.25 -1 0.45 -0.80 1.05 -1 3.25 -1 3.85 0 3.50 0.90 -1.25 3.10 l-4 1.85 0 -1.45z"/>
  <path d="M338.50 73.15 c0.05 -0.60 6.35 -5.40 10.50 -7.95 2.05 -1.25 3.90 -2.40 4.15 -2.55 0.20 -0.10 0.35 0.50 0.35 1.30 0 1.05 -0.25 1.55 -0.75 1.55 -0.40 0 -0.75 0.20 -0.75 0.50 0 0.25 -0.55 0.60 -1.25 0.80 -0.70 0.15 -1.25 0.50 -1.25 0.75 0 0.25 -0.65 0.45 -1.50 0.45 -1.15 0 -1.50 0.20 -1.50 1 0 0.55 -0.30 1 -0.70 1 -0.40 0 -0.80 0.35 -1 0.75 -0.15 0.40 -0.55 0.75 -0.90 0.75 -0.35 0 -0.95 0.45 -1.30 1 -0.40 0.70 -1.15 1 -2.35 1 -0.95 0 -1.75 -0.15 -1.75 -0.35z"/>
  <path d="M400.65 69.65 c-2.95 -0.65 -3.65 -0.95 -3.65 -1.70 0 -0.80 0.40 -0.95 2.75 -0.95 1.50 0 2.75 0.25 2.75 0.50 0 0.30 0.45 0.50 1 0.50 0.75 0 1 0.35 1 1.25 0 0.70 -0.05 1.20 -0.10 1.20 -0.10 -0.05 -1.80 -0.40 -3.75 -0.80z"/>
  <path d="M384 67.40 c0 -1.60 0.90 -1.85 6.50 -1.85 4.95 0.05 5.50 0.20 5.50 1.85 l0 1.35 -6 0 -6 0 0 -1.35z"/>
  <path d="M354 62.85 c0 -0.35 0.95 -1 2.15 -1.45 1.15 -0.45 3.30 -1.30 4.75 -1.85 l2.60 -1.05 0 1.20 c0 0.90 -0.45 1.35 -2.15 2 -1.15 0.45 -2.50 0.80 -3 0.80 -0.45 0 -0.85 0.25 -0.85 0.50 0 0.30 -0.80 0.50 -1.75 0.50 -1.10 0 -1.75 -0.25 -1.75 -0.65z"/>
  <path d="M365 58.90 c0 -0.45 0.95 -1.05 2.40 -1.50 2.25 -0.75 2.35 -0.75 2.50 0.20 0.25 1.35 0 1.50 -2.65 1.75 -1.75 0.25 -2.25 0.10 -2.25 -0.45z"/>
  <path d="M411.50 57.80 c0 -1.15 0.10 -1.20 1.75 -0.65 0.95 0.30 1.75 0.80 1.75 1.20 0 0.40 -0.65 0.65 -1.75 0.65 -1.50 0 -1.75 -0.15 -1.75 -1.20z"/>
 </g>
 <g fill="#00a944">
  <path d="M252 363.75 c-2.30 -0.40 -5.90 -1.15 -8 -1.65 -2.05 -0.55 -5.10 -1.25 -6.75 -1.60 -6.80 -1.45 -14.55 -4.40 -24.30 -9.25 -21.15 -10.60 -37.75 -25 -50.85 -44 -2.45 -3.55 -5.05 -7.50 -5.70 -8.75 -6.40 -11.55 -10.25 -21.20 -13.50 -33.50 -1.90 -7.30 -2.35 -9.65 -3.30 -17.85 -0.20 -1.90 -0.55 -3.65 -0.70 -3.95 -0.20 -0.30 -1.30 -0.80 -2.50 -1.20 -6.80 -2.05 -9.40 -3.50 -12.80 -7.20 -2.80 -3.05 -6.10 -9.85 -6.10 -12.65 0 -1.40 0 -1.40 -8.50 3.25 -9.35 5.10 -14.65 7.75 -22.50 11.20 -8.15 3.60 -29.05 11.40 -39 14.65 -4 1.30 -7.65 2.55 -8.10 2.80 -2.40 1.20 -6.85 2.45 -8.80 2.45 -2.65 0 -5.50 -2 -6.85 -4.80 -0.80 -1.70 -0.80 -2 0.25 -6.35 1.25 -5.30 1.40 -5.75 3.80 -13.10 6.65 -20.10 16.60 -38.30 26.90 -49.25 1.65 -1.80 3.95 -4.30 5.05 -5.50 5.90 -6.60 19.80 -17.40 28.70 -22.35 4.95 -2.75 12.85 -6.65 13.50 -6.65 0.60 0 4.05 -1.85 4.75 -2.55 0.30 -0.25 1.10 -0.45 1.85 -0.45 0.75 0 1.55 -0.20 1.70 -0.50 0.15 -0.25 0.80 -0.50 1.40 -0.50 1.20 0 4.65 -1.10 5.15 -1.65 0.20 -0.20 1.20 -0.35 2.25 -0.35 1.05 0 2.05 -0.25 2.20 -0.50 0.15 -0.30 1.25 -0.50 2.45 -0.50 1.15 0 2.30 -0.20 2.60 -0.45 0.25 -0.25 2.10 -0.55 4.05 -0.65 2.75 -0.20 3.80 -0.10 4.20 0.45 0.35 0.35 2.55 2.20 4.90 4 4.90 3.80 9.70 8 16.25 14.15 7.10 6.65 9.50 8.50 11.25 8.50 0.80 0 1.65 -0.20 1.80 -0.50 0.15 -0.25 0.85 -0.50 1.50 -0.50 0.65 0 1.35 -0.20 1.50 -0.50 0.15 -0.25 0.85 -0.50 1.50 -0.50 0.65 0 1.35 -0.25 1.50 -0.50 0.15 -0.25 0.95 -0.50 1.75 -0.50 0.80 0 1.60 -0.25 1.75 -0.50 0.15 -0.30 0.95 -0.50 1.75 -0.50 0.80 0 1.60 -0.20 1.75 -0.50 0.15 -0.25 1.05 -0.50 2 -0.50 0.95 0 1.85 -0.25 2 -0.50 0.15 -0.30 1.10 -0.50 2.05 -0.50 0.95 0 1.70 -0.20 1.70 -0.50 0 -0.25 0.90 -0.50 1.95 -0.50 1.10 0 2.15 -0.25 2.30 -0.50 0.15 -0.30 1.05 -0.50 2 -0.50 0.95 0 1.85 -0.20 2 -0.50 0.15 -0.25 1.55 -0.50 3.05 -0.50 1.50 0 2.70 -0.20 2.70 -0.50 0 -0.30 1.30 -0.50 2.95 -0.50 1.65 0 3.15 -0.25 3.30 -0.50 0.15 -0.25 1.15 -0.50 2.20 -0.50 1.50 0 2 0.20 2.20 1 0.30 1.10 -0.15 1.30 -3.90 1.75 -7.45 1 -17.20 3.15 -29 6.45 -2.45 0.70 -5.20 1.30 -6.05 1.30 -0.95 0 -1.70 0.30 -1.90 0.75 -0.15 0.45 -0.90 0.75 -2 0.75 -0.95 0 -1.80 0.25 -1.90 0.55 -0.10 0.30 -1.25 0.65 -2.55 0.80 -2.20 0.25 -2.50 0.15 -5.20 -2.10 -4.15 -3.35 -9.10 -7.80 -10.45 -9.30 -0.65 -0.70 -3.55 -3.25 -6.45 -5.75 -3.75 -3.20 -5.25 -4.75 -5.25 -5.55 0 -0.95 -0.30 -1.15 -1.45 -1.15 -0.85 0 -2.35 -0.70 -3.80 -1.80 l-2.35 -1.85 -3.60 0.65 c-1.95 0.35 -5.25 1.05 -7.30 1.55 -2.05 0.50 -4.35 0.95 -5.10 0.95 -0.80 0 -1.40 0.20 -1.40 0.45 0 0.20 -1.05 0.70 -2.40 1.05 -1.30 0.35 -3.20 1.05 -4.20 1.60 -1.05 0.50 -2.45 0.90 -3.15 0.90 -0.70 0 -1.25 0.20 -1.25 0.40 0 0.20 -2.75 1.75 -6.10 3.35 -3.40 1.65 -6.25 3.10 -6.40 3.25 -0.50 0.50 -3.25 2.10 -4.60 2.65 -0.80 0.30 -1.40 0.75 -1.40 0.95 0 0.20 -0.25 0.40 -0.55 0.40 -0.30 0 -0.85 0.35 -1.25 0.75 -0.45 0.40 -1.30 0.75 -2 0.75 -0.80 0 -1.20 0.30 -1.20 0.80 0 1 -1.40 2.15 -2.60 2.20 -0.50 0 -0.90 0.35 -0.90 0.75 0 0.40 -0.50 1 -1.10 1.30 -2.55 1.35 -2.60 1.80 -0.45 4.05 1.05 1.20 2.65 2.55 3.50 3.05 1.55 0.90 1.55 0.90 2.15 -0.35 0.40 -0.95 0.95 -1.30 1.95 -1.30 1.10 0 1.50 -0.30 1.75 -1.25 0.20 -0.90 0.65 -1.25 1.50 -1.25 0.80 0 1.40 -0.40 1.80 -1.25 0.30 -0.65 1 -1.40 1.60 -1.55 0.60 -0.20 1.15 -0.50 1.30 -0.70 0.40 -0.60 4.40 -2.50 5.25 -2.50 0.40 0 0.75 -0.20 0.75 -0.50 0 -0.25 0.45 -0.50 1 -0.50 0.55 0 1.15 -0.30 1.30 -0.70 0.30 -0.80 6.15 -3.30 7.70 -3.30 0.55 0 1 -0.20 1 -0.45 0 -0.45 4.85 -2.25 9 -3.30 13.05 -3.30 14.50 -3.40 15.25 -0.85 0.35 1.30 0.70 1.60 1.85 1.60 0.80 0 1.55 0.35 1.70 0.75 0.20 0.40 0.65 0.75 1 0.75 0.40 0 0.85 0.40 1.05 0.90 0.15 0.45 0.75 1.20 1.25 1.65 0.70 0.55 0.95 1.25 0.80 2.50 l-0.15 1.70 -4 -3.80 c-2.20 -2.10 -4.50 -4.05 -5.10 -4.40 -1.35 -0.70 -3.15 -0.70 -3.15 -0.05 0 0.30 -0.90 0.50 -2 0.50 -1.10 0 -2 0.25 -2 0.50 0 0.30 -1 0.50 -2.25 0.50 -1.25 0 -2.25 0.25 -2.25 0.50 0 0.30 -0.75 0.50 -1.65 0.50 -0.90 0 -1.90 0.25 -2.20 0.55 -0.30 0.30 -0.85 0.60 -1.20 0.65 -0.40 0.10 -1.60 0.55 -2.70 1.05 -1.10 0.45 -2.20 0.90 -2.50 1 -0.25 0.05 -1.40 0.50 -2.50 1 -1.10 0.50 -2.25 0.90 -2.60 0.90 -0.35 0 -0.75 0.35 -0.90 0.75 -0.15 0.40 -0.60 0.60 -0.95 0.45 -0.40 -0.15 -0.85 0.05 -1 0.50 -0.20 0.40 -0.60 0.65 -1 0.50 -0.35 -0.15 -1.30 0.30 -2.05 0.95 -0.75 0.65 -1.60 1.05 -1.80 0.90 -0.25 -0.15 -0.45 -0.05 -0.45 0.20 0 0.55 -3 1.90 -3.65 1.70 -0.25 -0.05 -0.30 0.05 -0.15 0.30 0.15 0.25 -0.65 0.95 -1.80 1.60 -1.10 0.65 -2.45 1.50 -2.90 1.95 -0.50 0.45 -1.75 1.35 -2.75 2.05 -1.05 0.70 -3.50 2.80 -5.50 4.65 -1.95 1.85 -4.05 3.70 -4.65 4.15 -0.60 0.40 -2.35 2.25 -3.85 4.10 -1.45 1.85 -3.90 4.80 -5.35 6.60 -1.45 1.80 -3 3.75 -3.40 4.35 -8.80 12.70 -12.25 19.20 -17.30 32.45 -1.80 4.90 -2 5.70 -1.20 5.70 0.30 0 0.50 -0.20 0.50 -0.50 0 -0.25 0.50 -0.50 1.15 -0.50 0.65 0 1.40 -0.25 1.70 -0.55 0.30 -0.30 0.85 -0.60 1.20 -0.65 1 -0.20 2.55 -0.80 3.55 -1.35 0.50 -0.25 1.35 -0.45 1.85 -0.45 0.55 0 1.10 -0.20 1.25 -0.45 0.15 -0.25 0.90 -0.60 1.65 -0.80 0.80 -0.15 2.10 -0.65 3 -1.10 0.85 -0.40 1.85 -0.80 2.25 -0.85 0.35 -0.05 1.50 -0.50 2.50 -1 1 -0.50 2.10 -0.95 2.50 -1 0.35 -0.05 1.15 -0.40 1.75 -0.70 0.65 -0.35 1.15 -0.45 1.15 -0.25 0 0.20 0.25 0.10 0.60 -0.25 0.35 -0.35 1 -0.60 1.50 -0.60 0.50 0 0.90 -0.20 0.90 -0.50 0 -0.25 0.30 -0.50 0.65 -0.50 0.35 0 1.95 -0.65 3.60 -1.50 1.65 -0.80 3.25 -1.50 3.60 -1.50 0.30 0 1.55 -0.50 2.75 -1.05 1.15 -0.60 2.60 -1.25 3.15 -1.45 0.55 -0.20 2.60 -1.10 4.50 -2 1.95 -0.90 4.05 -1.85 4.75 -2.10 0.70 -0.30 1.70 -0.75 2.25 -1.05 6.60 -3.50 8.05 -4.35 11.45 -6.70 1.30 -0.90 2.55 -1.65 2.75 -1.65 0.20 0 0.80 -0.45 1.30 -1 0.50 -0.55 1.15 -1 1.45 -1 0.35 0 1.95 -1.40 3.65 -3.10 2.80 -2.90 4.65 -5.45 12.85 -17.55 1.65 -2.40 3.15 -4.35 3.35 -4.35 0.20 0 1.05 0.55 1.85 1.25 0.85 0.70 1.70 1.25 2 1.25 0.25 0 0.80 0.35 1.15 0.80 0.35 0.45 1.10 1 1.70 1.25 2.20 0.95 4.75 3.05 4.75 3.95 0 0.60 -1.90 4 -4.20 7.50 l-1.80 2.75 15.10 0.15 c9.90 0.05 15.20 -0.05 15.30 -0.40 0.10 -0.25 1.75 -0.50 3.65 -0.50 1.90 0 3.45 -0.20 3.45 -0.45 0 -0.25 -1.20 -1.35 -2.60 -2.40 -1.45 -1.10 -3.20 -2.55 -3.90 -3.20 -0.70 -0.70 -3.35 -3.10 -5.85 -5.40 -2.55 -2.30 -4.65 -4.40 -4.65 -4.60 0 -0.80 3.35 -0.50 3.70 0.30 0.15 0.40 0.60 0.75 1.05 0.75 0.40 0 0.75 0.35 0.75 0.75 0 0.40 0.30 0.75 0.65 0.75 0.40 0 1 0.55 1.35 1.25 0.35 0.70 0.85 1.25 1.10 1.25 0.20 0 0.40 0.55 0.40 1.25 0 1.10 0.20 1.25 1.65 1.25 1.05 0 1.80 0.35 2.25 1 0.35 0.55 0.90 1 1.25 1 0.80 0 2.85 2.70 2.85 3.75 0 0.40 0.45 0.75 1 0.75 0.85 0 1 0.35 1 1.95 0 1.10 -0.25 2.15 -0.50 2.30 -0.65 0.40 -4.50 5.60 -4.50 6.05 0 0.60 1.65 1.70 4.40 2.95 2.10 1 2.60 1.45 2.60 2.50 l0 1.25 -24.25 0 -24.25 0 0 4.55 c0 5.20 0.80 7.45 3.05 8.80 0.80 0.50 1.45 1.05 1.45 1.25 0 0.20 10.35 0.40 23 0.40 l23 0 0 7 0 7 -14.25 0 c-7.85 0 -14.25 0.20 -14.25 0.40 0 2.40 2.35 16.05 3.25 18.85 0.35 1.10 1.15 3.90 1.75 6.25 1.35 4.95 1.70 5.50 3.35 5.50 0.65 0 1.10 0.20 0.95 0.40 -0.15 0.25 1.05 0.45 2.65 0.45 1.55 0 3.20 0.15 3.55 0.40 0.40 0.25 1.90 0.50 3.45 0.60 1.50 0.05 2.85 0.30 3 0.55 0.15 0.20 1.90 0.45 3.80 0.55 1.95 0.05 3.70 0.35 4 0.60 0.25 0.25 2.20 0.45 4.35 0.45 2.15 0 3.90 0.20 3.90 0.45 0 1.80 3.50 -1.15 16.25 -13.90 7.85 -7.80 14.25 -14.30 14.25 -14.40 0 -0.10 -0.45 -0.70 -1.05 -1.30 l-1 -1.10 1.55 -0.15 c1.95 -0.20 2 -0.15 2.35 2.40 l0.30 2.10 -7.90 7.90 -7.85 7.85 0.80 1.55 c1 1.90 1.80 2.35 5.15 3 2.05 0.35 2.75 0.30 3.30 -0.25 0.40 -0.40 1.40 -0.65 2.30 -0.55 1.55 0.15 1.55 0.15 -4.95 7 -3.55 3.75 -6.50 7.15 -6.50 7.55 0 0.40 1.85 2.20 4.10 3.95 2.20 1.70 5.15 4.05 6.45 5.15 2.30 1.90 4.30 3.50 9.60 7.60 1.35 1.05 3.30 2.60 4.35 3.45 l1.90 1.55 18.50 0.35 c10.20 0.20 23.65 0.25 29.95 0.05 l11.40 -0.35 2.25 -1.70 c1.25 -0.90 2.50 -1.85 2.75 -2.10 0.30 -0.20 1.80 -1.35 3.35 -2.50 1.55 -1.15 2.95 -2.30 3.10 -2.55 0.20 -0.25 2.15 -1.90 4.45 -3.60 2.25 -1.75 4.65 -3.65 5.35 -4.30 0.70 -0.65 1.40 -1.15 1.60 -1.15 0.55 0 5.10 -3.50 5.30 -4.05 0.40 -1.05 1.10 -0.30 1.10 1.20 0 1.50 -0.40 1.95 -3.80 4.40 -2.10 1.50 -4.20 2.95 -4.65 3.20 -0.45 0.30 -0.90 0.65 -1.05 0.80 -0.75 0.90 -9.05 7.45 -9.50 7.45 -0.25 0 -0.50 0.20 -0.50 0.45 0 0.25 -1.85 1.80 -4.10 3.50 l-4.10 3.05 -5.60 0 c-4.65 0 -5.80 0.15 -6.50 0.85 -1.05 1.10 -3.50 6.35 -3.95 8.55 -0.30 1.40 -0.20 1.60 0.70 1.60 0.70 0 1.05 0.30 1.05 1 0 1 -0.35 1 -23.40 1 l-23.35 0 -7.90 7.90 c-4.30 4.30 -7.85 8.15 -7.85 8.50 0 0.35 1.20 1.15 2.65 1.80 1.40 0.65 3.60 1.65 4.85 2.20 6.20 2.85 20.80 6.60 30 7.60 11.25 1.30 21.65 0.85 35 -1.45 6.40 -1.15 24 -7.20 22.50 -7.80 -0.40 -0.15 -2.95 -2.40 -5.65 -5 l-4.90 -4.75 1.80 0 c0.95 0 1.75 0.25 1.75 0.50 0 0.30 0.40 0.50 0.95 0.50 0.75 0 3.35 2.45 5.60 5.35 0.80 1.05 1.45 3.15 1.45 4.60 0 1.25 -0.35 1.55 -2.85 2.60 -1.60 0.60 -3 1.20 -3.10 1.30 -0.70 0.55 7.25 7.15 8.60 7.15 1.15 0 1.10 1.80 0 2.15 -0.50 0.20 -1.85 0.90 -3.05 1.60 -1.15 0.70 -2.55 1.25 -3.10 1.25 -0.50 0 -1.10 0.25 -1.25 0.50 -0.15 0.30 -0.85 0.50 -1.50 0.50 -0.65 0 -1.35 0.25 -1.50 0.50 -0.15 0.30 -0.85 0.50 -1.50 0.50 -0.65 0 -1.35 0.25 -1.50 0.50 -0.15 0.30 -0.95 0.50 -1.70 0.50 -0.75 0 -1.55 0.20 -1.80 0.45 -0.30 0.20 -2.65 0.65 -5.25 1 -2.60 0.30 -6.75 0.95 -9.25 1.35 -6.35 1.10 -29.50 1.35 -35.25 0.45z m-37.35 -41.15 l7.90 -7.95 -1.90 -1.40 c-1.05 -0.80 -2.20 -1.75 -2.55 -2.10 -0.35 -0.30 -1.70 -1.45 -3 -2.50 -1.30 -1.05 -3.35 -2.75 -4.55 -3.75 -1.20 -1.05 -2.35 -1.90 -2.60 -1.90 -0.20 0 -1.15 -0.65 -2.05 -1.50 -0.90 -0.80 -1.90 -1.50 -2.25 -1.50 -0.35 0 -0.65 -0.20 -0.65 -0.45 0 -0.55 -6.05 -5.40 -8.60 -6.90 -1.10 -0.65 -2.95 -1.15 -4.50 -1.25 -1.45 -0.10 -2.75 -0.30 -2.90 -0.45 -0.15 -0.20 -1.60 -0.40 -3.25 -0.50 -1.65 -0.10 -3.10 -0.35 -3.25 -0.50 -0.15 -0.20 -1.60 -0.40 -3.25 -0.50 -1.65 -0.10 -3.10 -0.35 -3.25 -0.50 -0.15 -0.15 -1.45 -0.45 -2.85 -0.60 -2.20 -0.25 -2.65 -0.15 -2.65 0.50 0 1.40 6.95 11.80 11.95 17.90 5.30 6.40 14.10 15.20 18.50 18.50 1.45 1.10 3.55 2.75 4.65 3.65 1.10 0.85 2.25 1.60 2.60 1.60 0.30 0 4.10 -3.55 8.45 -7.90z"/>
  <path d="M321.60 351.80 c0.15 -1.45 0.30 -1.55 2.30 -1.70 2.85 -0.20 2.75 0.80 -0.20 2.20 l-2.25 1.10 0.15 -1.60z"/>
  <path d="M326.50 349.05 c0 -1.85 0.05 -1.95 2 -2.25 1.50 -0.25 2 -0.55 2 -1.25 0 -1.15 0.95 -1.55 3.50 -1.55 1.75 0 1.95 -0.15 2.25 -1.50 0.25 -1.25 0.55 -1.50 1.80 -1.50 1.10 0 1.45 -0.25 1.45 -1 0 -0.70 0.35 -1 1.15 -1 1.25 0 2.85 -1.40 2.85 -2.40 0 -0.40 0.85 -0.60 2.25 -0.60 1.90 0 2.25 0.15 2.25 1 0 0.55 -0.25 1 -0.55 1 -0.30 0 -1.85 1 -3.40 2.15 -1.55 1.20 -3.95 2.85 -5.25 3.65 -1.30 0.80 -3 1.85 -3.70 2.30 -0.75 0.45 -2.15 1.25 -3.10 1.80 -0.95 0.55 -2.60 1.45 -3.60 2 l-1.90 1.10 0 -1.95z"/>
  <path d="M349 335.15 c0 -1.10 0.70 -2.15 2.90 -4.30 2.55 -2.50 3.10 -2.85 4.85 -2.85 l2 0.05 -3.50 3.20 c-1.90 1.80 -4.10 3.70 -4.85 4.30 l-1.40 1 0 -1.40z"/>
  <path d="M327 333.65 c0 -0.95 0.15 -1.20 0.55 -0.80 0.35 0.35 2.40 -0.75 6.90 -3.80 6 -4.05 9.20 -6.55 15.30 -12.15 1.45 -1.35 2.75 -2.40 2.90 -2.40 0.20 0 0.35 0.70 0.35 1.55 0 1.10 -0.25 1.60 -1 1.80 -0.55 0.15 -1 0.55 -1 0.95 0 0.80 -5.75 5.70 -6.70 5.70 -0.40 0 -0.80 0.40 -0.90 0.90 -0.30 1.10 -4.60 4.10 -5.85 4.10 -0.50 0 -1.05 0.45 -1.20 1 -0.15 0.70 -0.70 1 -1.55 1 -0.85 0 -1.30 0.30 -1.30 0.75 0 0.45 -0.55 1 -1.20 1.25 -0.65 0.25 -1.35 0.70 -1.55 0.95 -0.15 0.30 -1.10 0.55 -2.05 0.55 -1.50 0 -1.70 -0.15 -1.70 -1.35z"/>
  <path d="M319.50 328 c0 -0.25 -0.40 -0.50 -0.85 -0.50 -0.50 0 -3.35 -2.55 -6.35 -5.60 -4.90 -5.05 -5.50 -5.85 -5.70 -7.75 -0.20 -2.05 -0.15 -2.15 1.05 -2.15 0.70 0 1.45 -0.20 1.60 -0.50 0.15 -0.25 1.15 -0.50 2.15 -0.50 l1.85 0.05 -1.85 1.65 c-1.05 0.90 -1.90 1.75 -1.90 1.90 0 0.15 3.10 3.35 6.85 7.10 l6.85 6.80 -1.85 0 c-1 0 -1.85 -0.20 -1.85 -0.50z"/>
  <path d="M360 325.10 c0 -1.80 0.40 -2.20 1.50 -1.60 0.70 0.40 1.55 -0.30 4.60 -3.65 2.05 -2.25 5.15 -6 6.90 -8.35 3.30 -4.45 4.45 -5.85 3.75 -4.50 -1.70 3.10 -13.55 17.30 -15.75 18.85 -0.95 0.65 -1 0.60 -1 -0.75z"/>
  <path d="M377.30 305.55 c0.15 -0.35 0 -0.85 -0.35 -1.10 -0.55 -0.35 -0.50 -0.45 0.25 -0.45 0.50 0 1.25 -0.40 1.65 -0.85 0.65 -0.85 0.65 -0.80 0.20 0.10 -0.25 0.55 -0.85 1.45 -1.30 2 -0.45 0.55 -0.65 0.70 -0.45 0.30z"/>
  <path d="M320.50 303.55 c0 -1.05 0.25 -1.55 0.75 -1.55 0.45 0 0.75 -0.45 0.75 -1.25 0 -1.05 0.25 -1.25 1.50 -1.25 0.85 0 1.50 -0.20 1.50 -0.50 0 -0.25 0.85 -0.50 1.90 -0.50 l1.85 0.05 -1.30 1.10 c-3.80 3.30 -6.05 5.10 -6.50 5.25 -0.25 0.10 -0.45 -0.50 -0.45 -1.35z"/>
  <path d="M382.10 297.25 c0.60 -1.20 1.15 -2.15 1.30 -2.05 0.20 0.25 -1.80 4.30 -2.15 4.30 -0.15 0 0.25 -1 0.85 -2.25z"/>
  <path d="M329 297 c0 -0.50 0.55 -1.55 1.25 -2.30 1.05 -1.10 1.50 -1.30 3.05 -1.05 1.60 0.25 1.80 0.20 1.55 -0.65 -0.15 -0.65 0 -1 0.45 -1 1.55 0 0.40 1.65 -3.35 4.75 -1.65 1.35 -2.95 1.50 -2.95 0.25z"/>
  <path d="M367 295.80 c0 -0.40 0.35 -0.80 0.75 -1 0.65 -0.20 0.70 -0.10 0.25 0.70 -0.65 1.15 -1 1.30 -1 0.30z"/>
  <path d="M369 292.20 c0.85 -1.05 2 -3.05 2 -3.45 0 -0.15 -0.75 -0.25 -1.60 -0.30 -0.90 0 -1.30 -0.15 -0.90 -0.30 0.40 -0.15 0.90 -0.50 1.05 -0.80 0.40 -0.60 2.45 0.05 2.45 0.80 0 1.05 -2.20 4.50 -3 4.75 -0.65 0.20 -0.65 0.15 0 -0.70z"/>
  <path d="M336.50 291.70 c0 -0.45 0.35 -0.70 0.90 -0.60 0.45 0.10 1.10 -0.15 1.40 -0.55 0.30 -0.40 0.80 -0.55 1.10 -0.35 0.85 0.50 0.75 1.30 -0.15 1.30 -0.40 0 -0.75 0.25 -0.75 0.50 0 0.30 -0.55 0.50 -1.25 0.50 -0.80 0 -1.25 -0.30 -1.25 -0.80z"/>
  <path d="M345 290.95 c0.70 -0.30 1.40 -0.85 1.65 -1.25 0.50 -0.90 1.35 -0.90 1.35 0.05 0 0.40 -0.35 0.75 -0.75 0.75 -0.40 0 -0.75 0.25 -0.75 0.50 0 0.30 -0.60 0.50 -1.35 0.45 l-1.40 0 1.25 -0.50z"/>
  <path d="M352 289.70 c0 -0.55 0.30 -0.75 0.95 -0.55 0.55 0.15 1.10 -0.05 1.25 -0.45 0.15 -0.35 0.60 -0.55 1.05 -0.40 0.95 0.40 1 1.20 0 1.20 -0.40 0 -0.75 0.25 -0.75 0.50 0 0.30 -0.55 0.50 -1.25 0.50 -0.80 0 -1.25 -0.30 -1.25 -0.80z"/>
  <path d="M359.65 289.15 c0.45 -0.10 0.85 -0.45 0.85 -0.75 0 -0.30 0.50 -0.40 1.25 -0.20 0.95 0.25 1.25 0.10 1.25 -0.50 0 -0.40 0.25 -0.70 0.60 -0.60 0.90 0.30 1.05 1.40 0.20 1.40 -0.45 0 -0.80 0.25 -0.80 0.50 0 0.30 -0.95 0.45 -2.10 0.45 -1.20 -0.05 -1.75 -0.15 -1.25 -0.30z"/>
  <path d="M340.95 277.25 c0.90 -0.40 2.50 -0.75 3.50 -0.70 1.50 0 1.60 0.10 0.75 0.45 -0.60 0.25 -2.15 0.55 -3.50 0.75 l-2.45 0.30 1.70 -0.80z"/>
  <path d="M349.45 276.25 c0.90 -0.40 2.70 -0.75 4 -0.70 1.95 0.05 2.10 0.10 0.95 0.45 -0.75 0.20 -2.55 0.55 -4 0.70 l-2.65 0.35 1.70 -0.80z"/>
  <path d="M358.45 275.25 c0.90 -0.40 2.50 -0.75 3.50 -0.70 1.50 0 1.60 0.10 0.75 0.45 -0.60 0.25 -2.15 0.55 -3.50 0.75 l-2.45 0.30 1.70 -0.80z"/>
  <path d="M366.95 274.25 c0.90 -0.40 2.50 -0.75 3.50 -0.75 2.55 0.05 1 0.80 -2.45 1.20 l-2.75 0.35 1.70 -0.80z"/>
  <path d="M375.50 273.45 c0.70 -0.30 1.50 -0.60 1.75 -0.65 0.30 -0.05 0.80 -0.25 1.15 -0.50 0.35 -0.20 0.80 -0.25 0.95 -0.10 0.60 0.60 -0.60 1.20 -2.85 1.50 -1.90 0.25 -2.05 0.20 -1 -0.25z"/>
  <path d="M231.50 258.85 c0 -1 0.30 -1.95 0.70 -2.20 0.40 -0.20 0.80 -0.95 0.90 -1.60 0.10 -0.90 0.60 -1.35 1.75 -1.65 2.50 -0.65 63.30 -0.25 63.50 0.40 0.10 0.30 0.85 0.40 1.65 0.30 1.15 -0.15 1.50 0 1.50 0.60 0 0.45 0.25 0.75 0.55 0.65 0.30 -0.05 0.80 0.35 1.10 0.90 0.35 0.55 1 1.30 1.50 1.65 0.45 0.35 0.85 1.05 0.85 1.50 -0.05 0.75 -0.10 0.75 -0.75 -0.10 -0.40 -0.55 -0.75 -0.80 -0.75 -0.60 0 0.25 -0.75 -0.40 -1.65 -1.40 l-1.65 -1.80 -31.95 0 -31.95 0 -1.55 1.65 c-0.80 0.85 -2 2.05 -2.60 2.55 l-1.15 0.95 0 -1.80z"/>
  <path d="M398.90 244.10 c0.25 -1.55 1.35 -2.60 2.70 -2.60 1.45 0 1.05 0.90 -0.60 1.25 -1 0.20 -1.50 0.65 -1.50 1.25 0 0.50 -0.20 1.05 -0.45 1.20 -0.20 0.15 -0.30 -0.35 -0.15 -1.10z"/>
  <path d="M228.30 237.80 c-11.85 -12.20 -11.85 -12.25 -11.70 -13.95 0.15 -1.70 1.90 -2.70 1.90 -1.10 0 0.45 4 4.90 8.85 9.80 l8.85 8.95 12.25 0 c6.75 0 12.80 0.15 13.45 0.30 0.65 0.20 1.10 0.70 1.10 1.25 0 0.90 -0.65 0.95 -14.35 0.95 l-14.35 0 -6 -6.20z"/>
  <path d="M384.50 243.10 c0 -0.35 -0.80 -0.60 -2 -0.60 -1.10 0 -2 -0.20 -2 -0.50 0 -0.85 4 -0.60 4.35 0.25 0.15 0.45 0.15 0.95 -0.05 1.10 -0.15 0.20 -0.30 0.05 -0.30 -0.25z"/>
  <path d="M348.50 240.75 c0 -1.85 0.70 -2.40 1.10 -0.85 0.35 1.20 2.60 1.60 9.05 1.60 3.15 0 4.80 0.20 4.60 0.50 -0.20 0.30 -3.25 0.50 -7.55 0.50 l-7.20 0 0 -1.75z"/>
  <path d="M403.75 241 c0.55 -0.25 1.45 -0.40 2 -0.40 0.80 0 0.75 0.10 -0.25 0.40 -1.70 0.55 -3 0.55 -1.75 0z"/>
  <path d="M408.45 239.50 c0.65 -0.55 1.35 -1 1.60 -1 0.85 0 0.45 0.45 -1.15 1.20 l-1.65 0.80 1.20 -1z"/>
  <path d="M413.25 236.50 c1.05 -1.10 2.05 -2 2.20 -2 0.15 0 -0.65 0.90 -1.70 2 -1.05 1.10 -2.05 2 -2.20 2 -0.15 0 0.65 -0.90 1.70 -2z"/>
  <path d="M348.50 228.75 l0 -2.25 7 0 c8.95 0 9.45 0.90 0.65 1.10 l-6.40 0.15 -0.15 1.65 c-0.25 2.40 -1.10 1.95 -1.10 -0.65z"/>
  <path d="M398.65 227.25 c0.20 -0.25 1.50 -0.60 2.85 -0.75 1.60 -0.20 2.35 -0.15 2.05 0.15 -0.55 0.55 -5.45 1.15 -4.90 0.60z"/>
  <path d="M194 211.25 c0 -1.25 0 -1.25 4.75 -1.25 4.75 0 4.75 0 4.75 1.25 0 1.25 0 1.25 -4.75 1.25 -4.75 0 -4.75 0 -4.75 -1.25z"/>
  <path d="M244 211.25 c0 -0.95 0.25 -1.25 1.15 -1.25 1.25 0.05 2.85 1.10 2.85 1.95 0 0.30 -0.85 0.55 -2 0.55 -1.80 0 -2 -0.10 -2 -1.25z"/>
  <path d="M194.40 197 c-0.35 -0.55 -0.90 -1 -1.20 -1 -0.30 0 -2.20 -1.60 -4.25 -3.55 -2.05 -1.95 -3.95 -3.70 -4.25 -3.85 -1.65 -1 -6.20 -5.45 -6.20 -6.10 0 -0.40 -0.65 -1.05 -1.50 -1.40 -1.30 -0.60 -1.50 -0.95 -1.50 -2.65 0 -1.75 0.15 -1.95 1.25 -1.95 0.70 0 1.65 -0.20 2.15 -0.45 0.45 -0.30 4.45 -1.30 8.85 -2.35 4.40 -1 9.55 -2.25 11.50 -2.75 3.80 -1.05 7.50 -1.25 8 -0.45 0.20 0.35 0.65 0.30 1.30 -0.05 0.60 -0.30 2.45 -0.45 4.20 -0.35 2.20 0.10 3.30 -0.05 3.75 -0.55 0.50 -0.50 1.75 -0.60 5.30 -0.45 3 0.15 4.75 0.05 4.85 -0.25 0.10 -0.30 1.55 -0.60 3.25 -0.75 2.55 -0.20 3.10 -0.10 3.10 0.55 0 1 -1.35 1.35 -7.75 1.90 -3 0.25 -7.30 0.70 -9.50 0.95 -2.20 0.30 -5.65 0.65 -7.60 0.80 -2 0.15 -3.65 0.50 -3.65 0.75 0 0.25 -0.90 0.45 -2 0.45 -1.10 0 -2 0.25 -2 0.50 0 0.30 -0.90 0.50 -2 0.50 -1.10 0 -2 0.25 -2 0.50 0 0.30 -1 0.50 -2.25 0.50 -1.25 0 -2.25 0.25 -2.25 0.50 0 0.30 -0.90 0.50 -2 0.50 -1.10 0 -2 0.25 -2 0.50 0 0.30 -0.90 0.50 -2 0.50 -1.10 0 -2 0.25 -2 0.50 0 0.30 -1.10 0.50 -2.50 0.50 -2.15 0 -2.50 0.15 -2.50 0.95 0 0.55 1 1.70 2.40 2.70 1.30 1 3.80 3.25 5.60 5.05 1.75 1.80 3.45 3.30 3.75 3.30 0.50 0 3.50 2.80 6.45 5.95 l1.50 1.55 -1.85 0 c-1.30 0 -2.05 -0.30 -2.45 -1z"/>
  <path d="M423.75 193.85 c1.65 -1.50 3.10 -2.65 3.20 -2.55 0.25 0.20 -3.45 3.50 -5.15 4.60 -0.60 0.40 0.30 -0.55 1.95 -2.05z"/>
  <path d="M393.50 194.45 c0 -0.55 3.30 -2.10 4 -1.85 0.30 0.10 -0.45 0.65 -1.70 1.25 -1.25 0.55 -2.30 0.85 -2.30 0.60z"/>
  <path d="M153.60 176.60 c-2.25 -2.15 -4.10 -4 -4.10 -4.20 0 -0.25 0.80 -0.40 1.75 -0.40 1.20 0 1.95 0.30 2.35 1 0.35 0.55 0.95 1 1.30 1 0.35 0 0.80 0.40 0.95 0.90 0.20 0.45 0.75 1.20 1.30 1.60 0.65 0.55 0.90 1.25 0.75 2.35 l-0.15 1.55 -4.15 -3.80z"/>
  <path d="M144.60 168.60 c-2.25 -2.10 -4.10 -4 -4.10 -4.20 0 -0.70 3.45 -0.40 3.85 0.30 0.20 0.35 0.90 0.90 1.55 1.25 0.60 0.30 1.10 0.80 1.10 1.10 0 0.30 0.45 0.90 1.05 1.40 0.75 0.60 1 1.25 0.85 2.40 l-0.15 1.55 -4.15 -3.80z"/>
  <path d="M236.50 168.80 c0 -0.95 1.45 -1.25 2.90 -0.60 1.70 0.70 1.30 1.30 -0.90 1.30 -1.40 0 -2 -0.20 -2 -0.70z"/>
  <path d="M354.25 168 c-0.80 -0.30 -0.65 -0.40 0.65 -0.35 0.95 0 1.90 -0.30 2.20 -0.70 0.40 -0.55 0.45 -0.50 0.20 0.20 -0.15 0.50 -0.30 1.05 -0.30 1.15 0 0.35 -1.65 0.15 -2.75 -0.30z"/>
  <path d="M340.75 163.50 c-0.20 -0.30 -0.50 -0.40 -0.75 -0.25 -0.25 0.15 -0.55 0.10 -0.70 -0.15 -0.40 -0.70 1.40 -0.50 2.10 0.25 0.35 0.35 0.45 0.65 0.15 0.65 -0.25 0 -0.65 -0.25 -0.80 -0.50z"/>
  <path d="M358.75 157.95 c-0.80 -0.60 -1.10 -0.90 -0.60 -0.75 0.50 0.15 1.10 0.30 1.35 0.30 0.20 0 0.50 0.35 0.70 0.75 0.35 0.95 0.35 0.95 -1.45 -0.30z"/>
  <path d="M216.90 156.65 c0.60 -0.10 1.10 -0.45 1.10 -0.70 0 -0.25 1.50 -0.45 3.35 -0.45 5.10 0 4 0.35 -3.35 1.15 -1.25 0.10 -1.75 0.15 -1.10 0z"/>
  <path d="M232.15 155.70 c0.45 -0.15 0.85 -0.50 0.85 -0.75 0 -0.25 2.30 -0.45 5.15 -0.45 6.70 0.05 5.40 0.95 -1.75 1.25 -2.85 0.10 -4.75 0.10 -4.25 -0.05z"/>
  <path d="M262.25 150.30 c0.05 -0.60 0.60 -1.30 1.30 -1.65 3.75 -1.75 6.95 -2.55 6.95 -1.70 0 0.30 -0.35 0.55 -0.80 0.55 -0.40 0 -0.60 0.25 -0.45 0.50 0.20 0.30 -0.25 0.50 -0.95 0.50 -0.70 0 -1.30 0.20 -1.30 0.45 0 0.50 -1.95 1.35 -2.60 1.15 -0.25 -0.05 -0.40 0.10 -0.40 0.35 0 0.25 -0.40 0.55 -0.90 0.65 -0.70 0.20 -0.90 0 -0.85 -0.80z"/>
  <path d="M369.05 146.80 c-2.20 -1.15 -3 -1.75 -2.55 -2.05 0.40 -0.25 0.85 -0.10 1.20 0.35 0.30 0.40 0.85 0.65 1.15 0.55 0.35 -0.15 0.80 0.10 0.95 0.55 0.15 0.40 0.60 0.60 0.95 0.50 0.35 -0.15 0.90 0.20 1.25 0.75 0.30 0.60 0.45 1.05 0.40 1.05 -0.10 -0.05 -1.60 -0.80 -3.35 -1.70z"/>
  <path d="M273 146.80 c0 -0.85 3.10 -1.40 3.60 -0.60 0.30 0.40 0.40 0.35 0.40 -0.05 0 -0.70 1.40 -0.85 2.70 -0.35 0.45 0.15 0.80 0.60 0.80 1 0 0.55 -0.90 0.70 -3.75 0.70 -2.85 0 -3.75 -0.15 -3.75 -0.70z"/>
  <path d="M252 140.80 c0.70 -0.65 1.35 -1.10 1.45 -1 0.35 0.30 -1.55 2.20 -2.15 2.20 -0.30 0 0.05 -0.55 0.70 -1.20z"/>
  <path d="M353.90 138.60 c-0.80 -0.45 -1.40 -1 -1.40 -1.15 0 -0.70 2.05 0.20 2.55 1.10 0.60 1.15 0.55 1.15 -1.15 0.05z"/>
  <path d="M299.70 138 c-0.25 -0.25 -1.35 -0.90 -2.40 -1.40 -1.15 -0.60 -1.70 -1.10 -1.35 -1.30 0.30 -0.20 0.55 -0.15 0.55 0.15 0 0.30 0.30 0.40 0.65 0.30 0.65 -0.30 3.75 2 3.30 2.45 -0.15 0.15 -0.50 0.05 -0.75 -0.20z"/>
  <path d="M258 137.15 c0 -0.45 2.60 -1.75 2.90 -1.45 0.10 0.15 -0.50 0.60 -1.35 1.05 -0.85 0.40 -1.55 0.60 -1.55 0.40z"/>
  <path d="M261.50 135.45 c0 -0.25 0.05 -0.45 0.15 -0.45 0.05 0 0.85 -0.20 1.75 -0.45 2.15 -0.65 2.05 0.05 -0.15 0.75 -0.95 0.30 -1.75 0.35 -1.75 0.15z"/>
  <path d="M390.50 134.25 c0 -1.20 0.10 -1.25 3.15 -1.20 1.70 0.05 2.50 0.20 1.75 0.30 -1.40 0.20 -2 1.15 -0.75 1.15 0.40 0 0.35 0.20 -0.15 0.50 -0.40 0.25 -1.50 0.50 -2.35 0.50 -1.45 0 -1.65 -0.15 -1.65 -1.25z"/>
  <path d="M265.75 134 c-0.20 -0.30 0.35 -0.50 1.35 -0.45 1.35 0 1.50 0.10 0.65 0.45 -1.35 0.60 -1.65 0.60 -2 0z"/>
  <path d="M269.80 133.25 c0.70 -0.55 2.45 -0.70 6.65 -0.75 3.15 0 5.60 0.10 5.50 0.20 -0.10 0.10 -2.75 0.30 -5.85 0.40 -3.15 0.05 -5.80 0.30 -5.95 0.55 -0.10 0.20 -0.45 0.35 -0.80 0.35 -0.30 0 -0.10 -0.35 0.45 -0.75z"/>
  <path d="M455.50 127.50 c0 -1.60 0.20 -2 0.90 -2 0.65 0 0.85 0.35 0.80 1.40 -0.15 2.45 -0.20 2.60 -0.95 2.60 -0.55 0 -0.75 -0.55 -0.75 -2z"/>
  <path d="M319.50 112.50 c0 -1.35 0.25 -2.50 0.50 -2.50 0.30 0 0.50 1.15 0.50 2.50 0 1.40 -0.20 2.50 -0.50 2.50 -0.25 0 -0.50 -1.10 -0.50 -2.50z"/>
 </g>
 <g fill="#00943c">
  <path d="M317.25 354.15 c-1.35 -0.35 -2.20 -1 -6.85 -5 -2.15 -1.85 -3.90 -3.65 -3.90 -3.95 0 -0.30 2 -1.40 4.50 -2.40 l4.50 -1.90 -1.50 -1.55 c-0.80 -0.90 -2.40 -2.65 -3.55 -3.95 -1.15 -1.30 -2.25 -2.25 -2.50 -2.10 -0.25 0.15 -3.20 -2.45 -6.60 -5.75 l-6.15 -6 -9 -0.10 c-4.90 -0.10 -8.55 -0.20 -8.05 -0.35 0.70 -0.15 0.85 -0.50 0.65 -1.25 -0.50 -2.05 2.45 -10 4.45 -12.05 0.65 -0.65 1.95 -0.80 6.45 -0.80 l5.60 0 4.10 -3.05 c2.25 -1.70 4.10 -3.25 4.10 -3.50 0 -0.25 0.25 -0.45 0.50 -0.45 0.55 0 9.15 -6.90 9.40 -7.55 0.10 -0.25 0.40 -0.45 0.60 -0.45 0.45 0 6.20 -4.10 8.40 -6 0.90 -0.75 1.10 -1.30 0.80 -2.10 -0.20 -0.65 -0.50 -1.25 -0.65 -1.40 -0.80 -0.60 -2.45 -4 -1.90 -3.85 0.35 0.05 1 0.95 1.50 2 0.50 1 1.05 1.85 1.30 1.85 0.25 0 0.70 1.05 1 2.40 0.50 1.85 1.30 3 3.80 5.50 2.25 2.15 3.60 3.10 4.45 3.10 0.75 0 1.30 0.10 1.30 0.25 0 0.40 -3.80 3.90 -6.30 5.75 -1.30 0.95 -2.80 1.65 -3.35 1.60 -0.60 -0.10 -0.85 0 -0.60 0.40 0.40 0.65 -0.85 1.95 -6.50 6.55 -5.50 4.45 -7.35 5.70 -8.35 5.55 -1.20 -0.20 -0.60 1.75 0.70 2.20 0.55 0.15 0.85 0.40 0.75 0.50 -0.45 0.45 8.85 9.70 9.50 9.50 0.35 -0.15 0.80 0 1.05 0.35 0.20 0.35 2 2.15 3.95 4.05 3.45 3.30 3.65 3.45 4.55 2.65 0.50 -0.45 1.15 -0.85 1.45 -0.85 0.30 0 0.85 -0.45 1.20 -1.05 0.40 -0.55 1.05 -1.05 1.45 -1.10 0.45 -0.10 1.30 -0.65 1.90 -1.25 0.65 -0.65 1.35 -1 1.60 -0.85 0.25 0.15 0.75 -0.20 1.15 -0.75 0.35 -0.55 0.85 -0.85 1 -0.65 0.20 0.15 0.35 0.05 0.35 -0.25 0 -0.35 0.20 -0.55 0.50 -0.50 0.25 0.10 1.20 -0.65 2.10 -1.70 0.90 -1 1.75 -1.75 1.90 -1.75 0.55 0.15 3.45 -2.35 3.20 -2.75 -0.15 -0.25 -0.05 -0.35 0.20 -0.30 0.25 0.10 1.85 -1.25 3.50 -2.95 1.65 -1.75 3.20 -3.15 3.40 -3.15 0.15 0 0.05 0.35 -0.30 0.75 -0.80 1 0.90 3.55 5.05 7.50 1.60 1.55 2.95 3 2.95 3.20 0 0.50 -4.70 5.05 -5.30 5.05 -0.25 0 -2.40 1.90 -4.70 4.25 -3.85 3.85 -4.40 4.25 -5.70 3.95 -1 -0.20 -1.30 -0.15 -1.05 0.25 0.45 0.80 -2.20 2.85 -3.40 2.65 -0.60 -0.10 -0.85 0 -0.60 0.40 0.55 0.90 -0.75 2 -2.05 1.70 -0.85 -0.20 -1.20 -0.10 -1.20 0.40 0 1.15 -2.35 3.05 -3.30 2.70 -1.25 -0.45 -2.70 0.10 -2.35 0.95 0.30 0.80 -2 2 -3.45 1.80 -0.50 -0.05 -0.90 0.20 -0.90 0.60 0 1.05 -1.65 2.35 -3.05 2.35 -0.65 0.05 -2 0.70 -2.95 1.50 -1.65 1.45 -2.60 1.65 -4.75 1.15z"/>
  <path d="M356.05 310.55 c0.35 -0.50 1.05 -1.20 1.65 -1.55 0.75 -0.45 0.60 -0.15 -0.40 0.95 -1.70 1.75 -2.05 1.95 -1.25 0.60z"/>
  <path d="M377.25 305.50 c0.20 -0.35 0.10 -0.80 -0.30 -1.05 -0.55 -0.35 -0.50 -0.45 0.20 -0.45 0.95 0 1.15 1.25 0.25 1.80 -0.35 0.25 -0.40 0.15 -0.15 -0.30z"/>
  <path d="M363 302.10 c0 -0.25 0.50 -0.85 1.10 -1.40 l1.05 -0.95 -0.90 1.40 c-0.90 1.40 -1.25 1.65 -1.25 0.95z"/>
  <path d="M365.35 298.55 c0.15 -0.55 0.55 -1.10 0.95 -1.25 0.55 -0.20 0.55 0 -0.10 0.95 -1 1.50 -1.20 1.55 -0.85 0.30z"/>
  <path d="M368.60 292.90 c0.40 -0.60 1 -1.20 1.35 -1.30 0.45 -0.15 0.35 0.25 -0.20 1.10 -0.50 0.70 -1.10 1.30 -1.35 1.30 -0.30 0 -0.20 -0.50 0.20 -1.10z"/>
  <path d="M336.50 291.50 c0 -0.25 0.35 -0.50 0.75 -0.50 0.40 0 0.75 0.25 0.75 0.50 0 0.30 -0.35 0.50 -0.75 0.50 -0.40 0 -0.75 -0.20 -0.75 -0.50z"/>
  <path d="M338.50 291.05 c0 -0.75 0.80 -1.10 1.70 -0.75 1.25 0.45 0.95 1.20 -0.45 1.20 -0.70 0 -1.25 -0.20 -1.25 -0.45z"/>
  <path d="M346.65 289.90 c0.10 -0.35 0.50 -0.65 0.85 -0.65 0.35 0 0.75 0.30 0.90 0.65 0.10 0.35 -0.25 0.60 -0.90 0.60 -0.65 0 -1 -0.25 -0.85 -0.60z"/>
  <path d="M352 289.50 c0 -0.25 0.35 -0.50 0.75 -0.50 0.40 0 0.75 0.25 0.75 0.50 0 0.30 -0.35 0.50 -0.75 0.50 -0.40 0 -0.75 -0.20 -0.75 -0.50z"/>
  <path d="M371.05 289.50 c0.10 -1.55 -0.05 -1.95 -0.80 -1.70 -0.40 0.20 -0.75 0.05 -0.75 -0.25 0 -0.65 1 -0.70 1.95 -0.10 0.60 0.40 0.60 0.70 0.15 1.65 -0.30 0.65 -0.55 0.80 -0.55 0.40z"/>
  <path d="M354.10 288.95 c0.10 -0.30 0.35 -0.50 0.55 -0.50 0.20 0.05 0.70 0.05 1.10 0.05 0.40 0 0.75 0.25 0.75 0.50 0 0.30 -0.60 0.50 -1.30 0.50 -0.70 0 -1.20 -0.25 -1.10 -0.55z"/>
  <path d="M358.90 289.15 c0.85 -0.10 1.60 -0.40 1.60 -0.70 0 -0.25 0.35 -0.45 0.75 -0.45 0.40 0 0.75 0.20 0.75 0.45 0 0.55 -1.85 1.05 -3.50 0.95 -0.95 -0.05 -0.85 -0.10 0.40 -0.25z"/>
  <path d="M363 287.75 c0 -0.90 -0.20 -0.90 2.25 0 l2 0.70 -2.10 0.05 c-1.60 0 -2.15 -0.20 -2.15 -0.75z"/>
  <path d="M318.90 277.15 c-1.30 -1.55 -1.55 -2.15 -0.65 -1.85 0.80 0.35 2 2.15 1.60 2.50 -0.10 0.10 -0.55 -0.20 -0.95 -0.65z"/>
  <path d="M336.25 277 c-0.95 -0.65 -1.20 -1 -0.70 -1 0.45 0 1.10 0.35 1.45 0.70 0.30 0.40 1.65 0.85 2.90 0.95 l2.35 0.15 -2.25 0.10 c-1.50 0.05 -2.75 -0.25 -3.75 -0.90z"/>
  <path d="M344.45 276.85 c0.20 -0.20 1.75 -0.35 3.35 -0.25 l2.95 0.15 -3.35 0.25 c-1.85 0.15 -3.15 0.05 -2.95 -0.15z"/>
  <path d="M355.40 275.65 c0.90 -0.10 2.25 -0.10 3 0 0.75 0.10 0 0.20 -1.65 0.20 -1.65 0 -2.25 -0.10 -1.35 -0.20z"/>
  <path d="M361.95 274.85 c0.20 -0.20 1.75 -0.35 3.35 -0.25 l2.95 0.15 -3.35 0.25 c-1.85 0.15 -3.15 0.05 -2.95 -0.15z"/>
  <path d="M315.65 272.70 c-0.75 -1 -3.80 -4.75 -6.75 -8.35 -2.95 -3.60 -5.25 -6.65 -5.15 -6.75 0.40 -0.40 1.75 1 1.75 1.70 0 0.40 0.50 0.95 1.15 1.25 1.05 0.45 2.55 2.50 3.45 4.60 0.25 0.55 0.85 1.05 1.40 1.20 0.55 0.15 1.15 0.80 1.30 1.45 0.15 0.65 0.50 1.20 0.75 1.20 0.25 0 0.70 0.55 0.95 1.25 0.25 0.70 0.70 1.25 0.95 1.25 0.55 0 2.20 2.50 1.90 2.85 -0.15 0.10 -0.90 -0.60 -1.70 -1.65z"/>
  <path d="M370.30 273.90 c0.15 -0.20 1.65 -0.40 3.35 -0.35 3.60 0.05 3.30 0.30 -0.75 0.60 -1.55 0.10 -2.75 0 -2.60 -0.25z"/>
  <path d="M213 272.30 c-1.50 -0.30 -3.05 -0.75 -3.40 -0.95 -0.80 -0.55 -2.60 -4.05 -2.60 -5.20 0 -0.50 3.55 -4.45 7.95 -8.85 4.40 -4.35 7.85 -8.20 7.75 -8.50 -0.15 -0.35 -3.90 -4.30 -8.40 -8.80 -4.45 -4.55 -8.50 -9 -8.95 -9.95 -0.70 -1.35 -0.85 -3.25 -0.85 -9.65 l0 -7.90 -1.25 0 c-0.70 0 -1.25 -0.20 -1.25 -0.50 0 -0.30 -1.40 -0.50 -3.25 -0.50 -1.85 0 -3.25 0.20 -3.25 0.50 0 0.30 -3.10 0.50 -8.25 0.50 -5.35 0 -8.25 -0.20 -8.25 -0.50 0 -0.30 -1 -0.95 -2.25 -1.50 -2.80 -1.20 -5.75 -3.40 -5.75 -4.25 0 -0.75 3.10 -5.45 4.90 -7.35 l1.25 -1.35 -2.20 -2.40 c-1.20 -1.30 -2.45 -2.35 -2.75 -2.25 -0.30 0.05 -0.85 -0.45 -1.20 -1.15 -0.35 -0.65 -0.85 -1.10 -1.05 -0.95 -0.45 0.25 -4.95 -4.10 -4.95 -4.85 0 -0.25 -0.35 -0.45 -0.75 -0.45 -0.40 0 -0.75 -0.40 -0.75 -0.85 0 -0.75 -0.10 -0.80 -0.45 -0.20 -0.40 0.60 -0.60 0.50 -1.10 -0.60 -0.30 -0.70 -0.75 -1.20 -1 -1.10 -0.45 0.30 -6.10 -5.15 -6.60 -6.40 -0.20 -0.50 -0.55 -0.80 -0.80 -0.65 -0.25 0.15 -0.80 -0.30 -1.25 -0.95 -0.45 -0.70 -1.05 -1.15 -1.30 -1 -0.50 0.30 -5.15 -4.10 -5.65 -5.45 -0.20 -0.45 -0.55 -0.75 -0.75 -0.60 -0.20 0.15 -0.80 -0.30 -1.30 -0.95 -0.50 -0.70 -1.10 -1.10 -1.35 -1 -0.50 0.35 -5.65 -4.65 -6.10 -5.90 -0.20 -0.50 -0.55 -0.80 -0.80 -0.60 -0.30 0.15 -0.75 -0.20 -1.05 -0.75 -0.30 -0.55 -0.70 -0.95 -0.90 -0.85 -0.60 0.15 -2.40 -1.30 -3.05 -2.55 -0.45 -0.90 -0.85 -1.05 -1.95 -0.80 -0.75 0.20 -1.45 0.50 -1.60 0.65 -0.15 0.15 -1 0.35 -1.95 0.35 -0.90 0.05 -1.80 0.25 -2 0.50 -0.15 0.25 -1.15 0.45 -2.20 0.50 -1.05 0 -2.10 0.30 -2.35 0.70 -0.20 0.35 -0.65 0.45 -0.95 0.30 -0.65 -0.40 -5.05 1.10 -5.05 1.70 0 0.25 -0.40 0.30 -0.95 0.15 -0.50 -0.10 -1.25 0.15 -1.70 0.55 -0.40 0.45 -1.15 0.80 -1.55 0.80 -1.40 0 -7.20 2.55 -7.50 3.30 -0.15 0.40 -0.75 0.70 -1.30 0.70 -0.55 0 -1 0.25 -1 0.50 0 0.30 -0.35 0.50 -0.75 0.50 -1.05 0 -5.25 2.10 -5 2.55 0.15 0.15 -0.40 0.45 -1.20 0.60 -0.95 0.20 -1.60 0.75 -2 1.75 -0.50 1.20 -0.85 1.40 -1.90 1.20 -0.75 -0.15 -1.20 -0.05 -1 0.25 0.15 0.25 -0.25 1.10 -0.90 1.95 -0.65 0.80 -1.20 1.15 -1.25 0.85 0 -1 -1.40 -0.75 -1.75 0.30 -0.35 1.10 -2.25 3.40 -2.25 2.75 0 -0.25 -0.65 -0.75 -1.50 -1.10 -2.10 -0.95 -6.10 -4.70 -7.25 -6.75 -0.80 -1.50 -0.85 -1.90 -0.25 -2.55 0.35 -0.45 0.75 -0.70 0.85 -0.60 0.30 0.25 1.15 -0.40 3 -2.20 0.70 -0.70 1.45 -1.20 1.70 -1.15 0.20 0.10 1 -0.55 1.80 -1.35 0.75 -0.85 1.65 -1.50 2 -1.50 0.35 0 1.05 -0.50 1.65 -1.10 0.55 -0.60 1 -0.90 1 -0.60 0 0.25 0.15 0.25 0.40 -0.05 0.20 -0.25 1.05 -0.85 1.85 -1.30 2.15 -1.15 3.95 -2.15 4.25 -2.45 0.35 -0.35 14.15 -7.15 14.75 -7.25 0.30 -0.05 0.80 -0.15 1.15 -0.15 0.35 -0.05 0.50 -0.35 0.30 -0.70 -0.20 -0.30 -0.15 -0.40 0.20 -0.20 0.30 0.15 1.05 0.10 1.70 -0.15 2.05 -0.85 3.15 -1.20 4.05 -1.35 0.50 -0.10 1.45 -0.55 2.10 -1 0.65 -0.45 1.45 -0.65 1.75 -0.45 0.25 0.15 0.75 0.15 1.10 -0.05 0.55 -0.35 2.05 -0.65 3.80 -0.80 0.30 -0.05 0.60 -0.20 0.60 -0.40 0 -0.20 0.95 -0.35 2.05 -0.40 1.15 -0.05 2.35 -0.30 2.65 -0.50 0.30 -0.25 2.20 -0.50 4.15 -0.55 3.45 -0.10 3.75 -0.05 5.95 1.65 1.30 1 2.65 1.80 3 1.80 0.35 0 1.05 0.55 1.55 1.20 0.55 0.65 2.95 2.95 5.45 5.05 2.45 2.15 5.60 4.95 6.95 6.30 3.55 3.40 6 5.60 9.80 8.75 2.95 2.40 3.50 2.65 4.60 2.25 0.70 -0.25 1.40 -0.75 1.60 -1.05 0.20 -0.35 0.90 -0.45 1.55 -0.30 0.70 0.20 1.30 0.05 1.55 -0.40 0.20 -0.35 1.65 -0.85 3.15 -1 1.50 -0.20 2.85 -0.50 3 -0.70 0.15 -0.20 0.90 -0.45 1.70 -0.50 0.80 -0.05 1.70 -0.30 2.05 -0.60 0.30 -0.25 0.70 -0.35 0.85 -0.25 0.15 0.15 0.90 0 1.70 -0.30 0.80 -0.35 2 -0.70 2.65 -0.75 0.65 -0.10 1.55 -0.30 2 -0.50 0.45 -0.20 1.45 -0.40 2.25 -0.50 0.80 -0.10 1.70 -0.40 2 -0.60 0.30 -0.25 1.35 -0.45 2.30 -0.55 0.95 -0.05 1.85 -0.25 2 -0.45 0.15 -0.25 0.80 -0.45 1.50 -0.45 1.75 -0.10 9.10 -1.20 10 -1.50 0.40 -0.15 1.70 -0.35 2.85 -0.45 3.30 -0.25 3.20 0.75 -0.80 6.50 -3.50 5.15 -4.45 7.25 -3.05 6.80 0.40 -0.10 2.30 -0.30 4.20 -0.40 3.15 -0.15 3.40 -0.10 2.65 0.60 -0.55 0.55 -1.75 0.80 -4 0.80 -2.15 0 -3.35 0.20 -3.50 0.65 -0.20 0.45 -0.30 0.45 -0.30 0 -0.05 -0.70 -3.55 -0.95 -3.55 -0.25 0 0.20 -0.85 0.40 -1.85 0.45 -1 0.05 -1.95 0.25 -2.10 0.50 -0.15 0.20 -1.10 0.50 -2.05 0.55 -0.95 0.10 -1.85 0.35 -2 0.50 -0.15 0.20 -1 0.40 -1.95 0.40 -0.90 0.05 -1.80 0.25 -2 0.50 -0.15 0.25 -1.05 0.50 -2 0.50 -0.90 0.05 -1.80 0.25 -2 0.50 -0.15 0.25 -1.20 0.50 -2.30 0.55 -1.10 0.05 -2.05 0.30 -2.15 0.55 -0.05 0.25 -0.70 0.35 -1.35 0.20 -0.85 -0.15 -1.35 0.05 -1.55 0.60 -0.25 0.65 -0.70 0.75 -1.75 0.55 -0.80 -0.20 -1.45 -0.20 -1.45 -0.05 0 0.40 8.60 8.80 9 8.80 0.15 0 2.05 1.70 4.25 3.75 2.15 2.05 4.10 3.75 4.25 3.75 0.20 0 1.35 0.90 2.55 2 l2.20 2 21.60 0 c21.15 0 21.65 0 21.65 1 0 0.50 -0.25 1.50 -0.55 2.20 -0.50 1.10 -0.40 1.55 1 3.65 0.85 1.30 2.25 3.20 3.10 4.15 l1.50 1.75 31.90 -0.15 c17.60 -0.10 32.45 -0.05 33 0.15 3.40 1.05 -1.30 1.25 -32.40 1.25 -26.30 0 -33.55 -0.15 -33.75 -0.60 -0.25 -0.50 -0.35 -0.50 -0.60 0 -0.20 0.45 -3.45 0.60 -13.70 0.60 l-13.45 0 -0.15 6 -0.15 6 1.95 1.50 c1.10 0.80 1.80 1.50 1.60 1.50 -0.25 0 0.30 0.65 1.15 1.45 0.80 0.75 1.40 1.50 1.30 1.65 -0.10 0.10 2.50 2.85 5.75 6.10 l6 5.90 25.35 -0.30 c14 -0.15 28.80 -0.10 32.90 0.10 6.65 0.40 7 0.45 2.90 0.50 l-4.65 0.10 -1.75 3.50 -1.75 3.50 1.10 0.65 c0.65 0.40 2.80 1.25 4.80 1.90 1.95 0.65 3.55 1.35 3.45 1.60 -0.05 0.20 -13.90 0.35 -30.75 0.35 -16.80 0 -30.60 0.20 -30.60 0.40 0 0.25 -0.50 0.40 -1.10 0.40 -0.75 -0.05 -1.10 0.25 -1.15 1.10 -0.05 0.75 -2.80 3.80 -7.85 8.85 -8.65 8.60 -8.10 8.35 -13.90 7.05z"/>
  <path d="M379 270 c0 -0.85 0.85 -2.35 1.15 -2 0.10 0.15 -0.10 0.80 -0.50 1.50 -0.35 0.70 -0.65 0.90 -0.65 0.50z"/>
  <path d="M302.50 256.25 c-0.35 -0.45 -0.55 -0.90 -0.40 -1 0.15 -0.15 0.55 0.05 0.90 0.50 0.35 0.45 0.55 0.90 0.40 1 -0.15 0.15 -0.55 -0.05 -0.90 -0.50z"/>
  <path d="M299.30 254.75 c-0.20 -0.55 0.05 -0.75 0.95 -0.75 0.80 0 1.25 0.30 1.25 0.75 0 0.40 -0.45 0.75 -0.95 0.75 -0.50 0 -1.05 -0.35 -1.25 -0.75z"/>
  <path d="M304.60 240 c1.40 -1.35 2.65 -2.50 2.80 -2.50 0.20 0 -0.80 1.15 -2.15 2.50 -1.35 1.40 -2.65 2.50 -2.85 2.50 -0.20 0 0.80 -1.10 2.20 -2.50z"/>
  <path d="M349.50 242 c-0.60 -0.35 -0.80 -1.85 -0.90 -7.10 -0.20 -8.15 0.55 -8.10 0.90 0 l0.25 5.85 1.50 0.30 c1.10 0.25 1.20 0.35 0.40 0.40 -0.60 0 -1.15 0.25 -1.25 0.55 -0.10 0.30 -0.45 0.30 -0.90 0z"/>
  <path d="M320.70 218 c0 -2.90 0.05 -4.05 0.15 -2.60 0.10 1.40 0.10 3.80 0 5.25 -0.10 1.40 -0.15 0.25 -0.15 -2.65z"/>
  <path d="M334.15 212.50 c0.10 -1.15 0.30 -1.25 2.30 -1.25 1.35 0 2.30 0.25 2.45 0.65 0.10 0.40 -0.50 0.60 -2.05 0.60 -1.35 0 -2.40 0.25 -2.55 0.65 -0.15 0.30 -0.20 0.05 -0.15 -0.65z"/>
  <path d="M316.40 212.15 c0.60 -0.10 1.10 -0.45 1.10 -0.70 0 -0.75 2.15 -0.35 2.40 0.45 0.15 0.40 -0.50 0.60 -2.25 0.55 -1.30 -0.05 -1.90 -0.20 -1.25 -0.30z"/>
  <path d="M277.15 198.65 c0.45 -0.10 1.25 -0.10 1.75 0 0.45 0.15 0.05 0.25 -0.90 0.25 -0.95 0 -1.35 -0.10 -0.85 -0.25z"/>
  <path d="M338.65 198.65 c0.75 -0.10 1.95 -0.10 2.75 0 0.75 0.10 0.10 0.20 -1.40 0.20 -1.50 0 -2.15 -0.10 -1.35 -0.20z"/>
  <path d="M275.80 196.90 c0.20 -0.55 0.05 -0.90 -0.35 -0.90 -0.45 0 -0.50 -0.15 -0.10 -0.55 0.30 -0.30 0.95 -0.45 1.40 -0.35 0.80 0.15 0.75 0.25 -0.20 1.40 -0.65 0.80 -0.95 0.95 -0.75 0.40z"/>
  <path d="M424 193.85 c0 -0.10 0.75 -0.80 1.65 -1.65 l1.60 -1.45 -1.45 1.65 c-1.40 1.50 -1.80 1.85 -1.80 1.45z"/>
  <path d="M426.75 190 c-0.90 -0.40 -0.85 -0.45 0.40 -0.45 0.75 -0.05 1.35 0.20 1.35 0.45 0 0.60 -0.40 0.60 -1.75 0z"/>
  <path d="M283.20 187.80 c0.20 -0.55 0.05 -1.15 -0.30 -1.40 -0.50 -0.30 -0.40 -0.40 0.25 -0.40 0.95 0 1.10 0.90 0.30 2 -0.45 0.60 -0.50 0.60 -0.25 -0.20z"/>
  <path d="M254 187.50 c0 -0.25 0.35 -0.50 0.75 -0.50 0.40 0 0.75 0.25 0.75 0.50 0 0.30 -0.35 0.50 -0.75 0.50 -0.40 0 -0.75 -0.20 -0.75 -0.50z"/>
  <path d="M267.50 185.75 c0.05 -0.25 0.70 -1.30 1.55 -2.25 0.85 -0.95 1.30 -1.30 1 -0.75 -0.75 1.50 -2.55 3.55 -2.55 3z"/>
  <path d="M254.65 183.25 c-0.50 -0.50 -0.45 -0.75 0 -1.20 0.50 -0.35 0.65 -0.20 0.75 0.75 0.10 1.40 0.05 1.40 -0.75 0.45z"/>
  <path d="M254.50 180.25 c0 -0.40 -0.35 -0.75 -0.75 -0.75 -0.90 0 -1.05 -2.30 -0.10 -2.65 0.50 -0.20 0.50 -0.30 0 -0.30 -1 -0.05 -0.90 -10.55 0.05 -10.55 0.40 0 0.80 -0.20 0.90 -0.50 0.10 -0.25 0.15 3.10 0.15 7.50 0 4.40 -0.05 8 -0.10 8 -0.10 0 -0.15 -0.35 -0.15 -0.75z"/>
  <path d="M271.90 180.15 c0.30 -0.10 0.60 -0.50 0.60 -0.80 0 -0.35 0.45 -0.90 1.05 -1.25 0.95 -0.60 0.95 -0.60 -0.10 0.85 -0.65 0.85 -1.40 1.55 -1.65 1.50 -0.30 0 -0.25 -0.15 0.10 -0.30z"/>
  <path d="M290.65 178.80 c-0.45 -0.55 -0.35 -0.90 0.55 -1.75 2.15 -2 3.15 -1.05 1.20 1.15 -0.95 1.05 -1.25 1.15 -1.75 0.60z"/>
  <path d="M293.85 176 c-0.30 -1.10 1.95 -3.15 4 -3.65 1 -0.20 1.05 -0.15 0.50 0.60 -0.30 0.50 -1.40 1.60 -2.40 2.45 -1.70 1.50 -1.85 1.55 -2.10 0.60z"/>
  <path d="M276.50 174.70 c0 -0.15 0.80 -1.10 1.80 -2.10 l1.85 -1.85 -1.60 2.15 c-1.55 2 -2.05 2.45 -2.05 1.80z"/>
  <path d="M240.65 172.25 c0 -1.35 0.10 -1.90 0.20 -1.10 0.10 0.75 0.10 1.85 0 2.50 -0.10 0.60 -0.20 0 -0.20 -1.40z"/>
  <path d="M325.50 173.80 c0 -0.10 0.55 -0.30 1.25 -0.40 0.70 -0.15 1.25 -0.05 1.25 0.15 0 0.25 -0.55 0.45 -1.25 0.45 -0.70 0 -1.25 -0.10 -1.25 -0.20z"/>
  <path d="M216 170.05 c0 -0.75 1.45 -1.05 5.10 -1.05 3.10 0 3.40 0.10 2.70 0.75 -0.80 0.85 -7.80 1.10 -7.80 0.30z"/>
  <path d="M226.50 169.05 c0 -0.25 0.50 -0.55 1.15 -0.70 1.55 -0.40 11.35 -0.55 11.70 -0.15 0.20 0.15 -0.05 0.30 -0.50 0.30 -0.45 0 -0.85 0.25 -0.85 0.50 0 0.30 -2.25 0.50 -5.75 0.50 -3.15 0 -5.75 -0.20 -5.75 -0.45z"/>
  <path d="M297.30 155.70 c-0.35 -0.95 -0.40 -2.95 -0.05 -2.60 0.55 0.50 1.15 3.40 0.75 3.40 -0.20 0 -0.55 -0.35 -0.70 -0.80z"/>
  <path d="M232.15 155.65 c1.30 -0.10 3.35 -0.10 4.50 0 1.15 0.10 0.10 0.15 -2.40 0.15 -2.45 0 -3.40 -0.05 -2.10 -0.15z"/>
  <path d="M240 155.05 c1.50 -0.55 3.30 -0.70 2.85 -0.25 -0.15 0.15 -1.15 0.40 -2.20 0.50 -1.55 0.15 -1.70 0.10 -0.65 -0.25z"/>
  <path d="M294.50 151.75 c-2 -2.05 -5.20 -3.85 -6.20 -3.45 -0.40 0.15 -0.85 0.05 -1.05 -0.25 -0.15 -0.30 -2 -0.55 -4.30 -0.55 -2.30 0 -3.95 -0.20 -3.95 -0.50 0 -0.25 -0.45 -0.50 -1 -0.50 -0.55 0 -1 -0.20 -1 -0.50 0 -0.45 4.15 -0.35 9.90 0.25 3.35 0.35 9.60 4.60 9.60 6.55 0 0.95 -0.10 0.95 -2 -1.05z"/>
  <path d="M261.65 151.65 c0.50 -0.55 0.85 -1.30 0.75 -1.65 -0.15 -0.60 0.55 -1.05 3.70 -2.60 0.50 -0.20 1.30 -0.40 1.80 -0.40 0.50 0 1.10 -0.20 1.40 -0.45 0.60 -0.55 7.20 -1 7.20 -0.45 0 0.20 -0.45 0.40 -1 0.40 -0.55 0 -1 0.25 -1 0.50 0 0.30 -1.25 0.50 -2.80 0.50 -1.50 0 -2.65 0.20 -2.50 0.40 0.10 0.20 -0.60 0.45 -1.60 0.50 -1 0.10 -2.05 0.40 -2.35 0.75 -0.25 0.35 -1.40 1.25 -2.50 2.05 -1.30 0.95 -1.70 1.10 -1.10 0.45z"/>
  <path d="M305.50 143.35 c-1.20 -1.15 -2 -2.70 -1.05 -2.10 0.50 0.30 2.75 3.25 2.45 3.25 -0.10 0 -0.70 -0.55 -1.40 -1.15z"/>
  <path d="M388.90 134.55 c-1.35 -1.35 -1.10 -1.55 1.85 -1.55 2.10 0 2.75 0.15 2.75 0.75 0 0.40 -0.35 0.75 -0.75 0.75 -0.40 0 -0.75 0.25 -0.75 0.50 0 0.80 -2.20 0.50 -3.10 -0.45z"/>
  <path d="M398 133.75 c0.50 -0.60 0.50 -0.75 -0.20 -0.75 -0.45 0 -0.80 0.25 -0.80 0.60 0 0.45 -0.15 0.45 -0.55 0.05 -0.85 -0.85 -0.05 -1.65 1.60 -1.65 1.10 0 1.45 -0.25 1.45 -1 0 -0.55 0.35 -1 0.75 -1 0.40 0 0.75 0.20 0.75 0.45 0 0.25 0.15 0.80 0.30 1.25 0.20 0.60 0 0.80 -0.75 0.80 -0.60 0 -1.05 0.25 -1.05 0.50 0 0.30 0.40 0.50 0.90 0.50 0.70 0 0.75 0.10 0.10 0.50 -0.40 0.25 -1.30 0.50 -1.95 0.50 -1 0 -1.05 -0.10 -0.55 -0.75z"/>
  <path d="M359.65 125.15 c-0.65 -0.45 -1.15 -1.15 -1.10 -1.60 0 -0.60 0.10 -0.55 0.45 0.20 0.40 0.95 0.45 0.95 0.45 -0.10 0.05 -1 1.05 -2.25 1.05 -1.25 0 0.25 0.55 0.75 1.25 1.10 0.70 0.35 1.25 1 1.25 1.45 0 1.05 -1.90 1.15 -3.35 0.20z"/>
  <path d="M455.50 122.25 c0 -1.90 0.15 -2.25 1 -2.25 1.05 0 1.30 1.15 0.70 3.40 -0.55 2.05 -1.70 1.30 -1.70 -1.15z"/>
  <path d="M327 88.05 c-0.70 -1.30 -0.65 -1.45 0.50 -2.05 0.90 -0.50 1 -0.40 1 1.25 0 1.90 -0.70 2.30 -1.50 0.80z"/>
 </g>
 <g fill="#005924">
  <path d="M426.75 190 c-0.55 -0.20 -2.85 -2.30 -5.10 -4.60 l-4.10 -4.15 4.30 -4.50 c10.10 -10.60 17.60 -25.80 19.60 -39.75 0.30 -2.05 0.75 -5.35 1.05 -7.35 1.05 -7.35 0.15 -17.60 -2.20 -25.65 -1.65 -5.65 -2.55 -7.70 -4.70 -11 -3.55 -5.45 -10.95 -14.15 -11.65 -13.70 -0.25 0.15 -0.45 -0.15 -0.50 -0.65 0 -0.50 -0.15 -0.65 -0.30 -0.30 -0.15 0.40 -0.65 0.20 -1.55 -0.60 -0.75 -0.70 -1.50 -1.25 -1.70 -1.25 -0.25 0 -0.40 -0.40 -0.40 -0.85 0 -0.70 -0.10 -0.75 -0.45 -0.20 -0.35 0.50 -0.60 0.40 -1.25 -0.50 -0.50 -0.75 -0.80 -0.90 -0.80 -0.45 -0.05 0.55 -0.30 0.45 -0.95 -0.35 -0.50 -0.60 -1.05 -0.95 -1.25 -0.80 -0.15 0.20 -0.30 0.10 -0.30 -0.20 0 -0.30 -0.40 -0.50 -0.85 -0.50 -2.30 0 -2.60 -0.15 -2.30 -1.05 0.30 -0.70 0.20 -0.75 -0.40 -0.25 -0.55 0.45 -1.50 0.35 -4.20 -0.45 -1.95 -0.55 -3.90 -1 -4.40 -1 -0.50 0.05 -1 -0.25 -1.15 -0.60 -0.20 -0.45 -1.05 -0.60 -3.10 -0.45 -2.20 0.15 -2.95 0.05 -3.40 -0.60 -0.45 -0.60 -1.45 -0.80 -4.05 -0.85 -5 0 -5.15 0.05 -5.15 0.85 0 0.55 -0.55 0.75 -2.10 0.75 -3.60 0 -12.05 1.95 -18.25 4.20 -1.15 0.45 -2.45 0.65 -2.80 0.50 -0.40 -0.15 -1.05 0.30 -1.55 1.05 -0.50 0.75 -1 1.20 -1.15 1.05 -0.15 -0.10 -0.70 0.15 -1.20 0.65 -0.55 0.50 -2.25 1.55 -3.75 2.30 -1.55 0.80 -2.90 1.75 -3.05 2.15 -0.25 0.55 -0.35 0.55 -0.70 0 -0.35 -0.50 -0.80 -0.20 -1.80 1.10 -0.75 0.95 -2.40 2.90 -3.65 4.25 -2.80 3.05 -5.30 6.30 -7.15 9.15 -0.75 1.15 -1.75 2.10 -2.25 2.10 -1.10 0 -7.60 -6.70 -8.70 -9 -0.75 -1.50 -0.75 -1.80 -0.15 -2.30 0.40 -0.30 0.60 -0.70 0.45 -0.85 -0.15 -0.15 0.20 -0.50 0.75 -0.85 0.60 -0.30 0.95 -0.75 0.80 -1.05 -0.20 -0.25 0.05 -0.60 0.45 -0.75 0.45 -0.15 0.70 -0.50 0.55 -0.70 -0.15 -0.20 1.85 -2.50 4.45 -5.05 5.30 -5.30 6.85 -6.65 8 -7.10 0.45 -0.20 0.80 -0.55 0.80 -0.85 0 -0.25 0.20 -0.50 0.50 -0.50 0.25 0 0.95 -0.45 1.50 -1 0.55 -0.55 1.35 -1 1.75 -1 0.40 0 0.75 -0.20 0.75 -0.45 0 -0.25 0.55 -0.60 1.25 -0.75 0.70 -0.20 1.25 -0.55 1.25 -0.80 0 -0.30 0.35 -0.50 0.75 -0.50 0.40 0 0.75 -0.20 0.75 -0.45 0 -0.25 0.75 -0.70 1.65 -1.05 2.60 -1 3.50 -1.35 5.10 -2 0.85 -0.40 1.75 -0.75 2 -0.80 0.30 -0.10 1.65 -0.55 3 -1 2.70 -0.95 3.70 -1.20 3.90 -1.10 0.05 0.05 0.60 -0.20 1.20 -0.55 0.65 -0.30 2.20 -0.80 3.50 -1.05 14.25 -2.95 26.15 -3 36.40 -0.20 9.90 2.65 22.50 9.45 25.70 13.75 0.60 0.80 2 2 3.05 2.70 1.10 0.70 2 1.55 2 1.90 0 0.35 0.60 1.20 1.40 1.85 0.75 0.70 1.90 2 2.60 2.90 0.70 0.95 1.75 2.35 2.40 3.10 0.60 0.75 1.10 1.65 1.10 1.95 0 0.30 0.20 0.55 0.40 0.55 0.25 0 0.90 0.95 1.45 2.10 3 6.25 4.10 8.85 4.65 10.90 0.35 1.25 0.80 2.70 1 3.25 0.25 0.55 0.55 1.70 0.70 2.50 0.10 0.85 0.50 2.65 0.80 4 0.80 3.65 1.05 7.20 1.10 14.50 0.05 7.20 -0.50 15.75 -1.05 16.50 -0.20 0.30 -0.45 1.50 -0.50 2.75 -0.10 1.25 -0.35 2.60 -0.60 3.10 -0.25 0.45 -0.45 1.40 -0.45 2.15 0 0.70 -0.35 1.95 -0.75 2.75 -0.40 0.80 -0.80 1.90 -0.90 2.45 -0.10 0.55 -0.30 1.20 -0.50 1.35 -0.20 0.20 -0.35 0.80 -0.35 1.30 0 0.50 -0.65 2.40 -1.50 4.15 -0.80 1.75 -1.50 3.50 -1.50 3.85 0 0.35 -0.75 1.90 -1.65 3.40 -0.90 1.50 -2.05 3.60 -2.60 4.65 -0.55 1 -1.15 1.85 -1.35 1.85 -0.25 0 -0.40 0.30 -0.40 0.65 0 0.40 -0.45 1.10 -1 1.60 -0.55 0.50 -1 1.20 -1 1.50 0 0.35 -0.35 0.75 -0.75 0.95 -0.40 0.15 -0.75 0.60 -0.75 1 0 0.35 -0.35 0.80 -0.75 1 -0.40 0.15 -0.75 0.60 -0.75 1 0 0.45 -0.50 1.10 -1.15 1.55 -0.65 0.40 -2.80 2.65 -4.85 5 -2 2.35 -3.80 4.25 -3.95 4.20 -0.15 0 -0.75 -0.20 -1.30 -0.45z"/>
  <path d="M379.80 133.95 c-0.45 -0.65 -1.05 -0.95 -1.50 -0.80 -0.45 0.20 -0.80 0.10 -0.80 -0.15 0 -0.25 -0.65 -0.20 -1.55 0.10 -0.80 0.30 -1.65 0.40 -1.80 0.20 -0.20 -0.15 -0.05 -0.30 0.25 -0.30 0.35 0 0.60 -0.25 0.60 -0.55 0 -0.25 -0.20 -0.40 -0.45 -0.25 -0.25 0.20 -0.55 0 -0.70 -0.30 -0.20 -0.50 -0.35 -0.55 -0.90 0 -0.90 0.85 -1.50 0.75 -1.10 -0.25 0.20 -0.55 0.15 -0.70 -0.25 -0.45 -0.35 0.20 -0.60 0.10 -0.60 -0.25 0 -0.50 -0.15 -0.50 -0.60 -0.05 -0.65 0.65 -1.45 0.80 -1.35 0.25 0.25 -1.60 -1.95 -3.05 -3 -2 -0.45 0.45 -0.50 0.35 -0.25 -0.40 0.35 -0.90 0.30 -0.95 -0.45 -0.30 -0.75 0.60 -0.85 0.60 -0.60 -0.05 0.30 -0.75 -2.05 -2.90 -3.15 -2.90 -0.25 0 -0.65 -0.35 -0.80 -0.80 -0.25 -0.60 -0.45 -0.70 -1 -0.25 -0.55 0.45 -0.60 0.30 -0.40 -0.75 0.25 -1.30 1.80 -3.05 6.70 -7.60 l2.30 -2.15 5.20 3.15 5.15 3.15 7.50 0 c4.60 0 8.15 -0.25 9.10 -0.60 2 -0.70 1.95 -0.80 4.10 5.80 1.75 5.20 1.95 7.05 0.80 7.05 -0.40 0 -0.75 0.25 -0.75 0.50 0 0.30 -0.55 0.40 -1.25 0.20 -0.70 -0.15 -1.25 -0.10 -1.25 0.15 0 0.25 -0.65 0.40 -1.50 0.25 -0.95 -0.15 -1.50 0 -1.50 0.40 0 0.60 -3.45 0.50 -8.20 -0.30 -1.50 -0.25 -2.05 -0.15 -2.40 0.50 -0.25 0.45 -0.85 0.80 -1.30 0.80 -0.70 0 -0.75 -0.10 -0.10 -0.50 0.40 -0.25 0.60 -0.60 0.45 -0.75 -0.45 -0.45 -2 0.30 -1.65 0.80 0.55 0.95 -0.30 0.40 -1 -0.60z"/>
  <path d="M421.50 120.60 c0 -0.65 -0.35 -1.50 -0.75 -1.95 -0.50 -0.45 -0.65 -1.15 -0.45 -1.75 0.20 -0.70 0.10 -0.90 -0.25 -0.70 -0.35 0.25 -0.45 0.05 -0.25 -0.40 0.20 -0.45 0.05 -0.80 -0.30 -0.80 -0.30 0 -0.50 -0.30 -0.40 -0.60 0.15 -0.35 -0.10 -0.95 -0.45 -1.30 -0.40 -0.40 -0.55 -1.15 -0.35 -1.70 0.20 -0.70 0.10 -0.90 -0.25 -0.70 -0.35 0.25 -0.45 0.05 -0.25 -0.40 0.20 -0.45 0.05 -0.80 -0.30 -0.80 -0.35 0 -0.50 -0.35 -0.30 -0.80 0.15 -0.40 0.10 -0.60 -0.20 -0.45 -0.50 0.30 -0.75 -0.65 -0.60 -2.40 0.05 -0.55 -0.10 -0.80 -0.50 -0.55 -0.35 0.20 -0.40 0.15 -0.20 -0.20 0.40 -0.70 -0.60 -2.75 -1.15 -2.35 -0.25 0.10 -1.10 0 -1.95 -0.30 -1.10 -0.40 -1.45 -0.75 -1.25 -1.35 0.25 -0.70 0.15 -0.75 -0.40 -0.20 -0.90 0.85 -1.50 0.75 -1.15 -0.15 0.20 -0.55 0.10 -0.65 -0.45 -0.50 -0.40 0.20 -1.05 0 -1.45 -0.40 -0.50 -0.50 -1 -0.60 -1.55 -0.25 -0.55 0.30 -0.85 0.25 -0.85 -0.05 0 -0.30 -0.35 -0.35 -0.85 -0.20 -0.60 0.25 -0.70 0.15 -0.40 -0.35 0.30 -0.50 0.20 -0.60 -0.40 -0.35 -0.55 0.20 -0.70 0.10 -0.50 -0.45 0.20 -0.50 0 -0.60 -0.55 -0.40 -0.45 0.15 -0.80 0.05 -0.80 -0.25 0 -0.30 -0.30 -0.40 -0.70 -0.25 -0.35 0.15 -1.05 -0.15 -1.55 -0.60 -0.70 -0.75 -0.90 -0.75 -1.30 -0.15 -0.30 0.50 -0.45 0.40 -0.45 -0.55 0 -1 -0.10 -1.10 -0.50 -0.50 -0.75 1.15 -0.60 0.30 0.20 -1.30 0.40 -0.75 0.60 -1.60 0.45 -1.85 -0.15 -0.30 -0.05 -0.35 0.25 -0.15 0.35 0.20 0.60 0.05 0.65 -0.30 0.20 -3.30 2.10 -8.70 3 -8.50 6.10 1.60 20.50 6.70 22.85 8.10 2.15 1.30 3.30 3.35 5.05 8.75 0.80 2.50 1.95 5.75 2.55 7.25 1.50 3.75 2.55 8.60 1.95 9.25 -0.70 0.75 -11.10 4.25 -11.60 3.90 -0.25 -0.15 -0.65 0.05 -0.90 0.40 -0.30 0.50 -0.45 0.40 -0.45 -0.45z"/>
 </g>
</svg>